<?xml version="1.0" standalone="no"?>
<!DOCTYPE svg PUBLIC "-//W3C//DTD SVG 20010904//EN"
 "http://www.w3.org/TR/2001/REC-SVG-20010904/DTD/svg10.dtd">
<svg version="1.0" xmlns="http://www.w3.org/2000/svg"
 width="195.000000pt" height="195.000000pt" viewBox="0 0 195.000000 195.000000"
 preserveAspectRatio="xMidYMid meet">

<g transform="translate(0.000000,195.000000) scale(0.100000,-0.100000)"
fill="#000000" stroke="none">
<path d="M811 1869 c-123 -24 -266 -87 -368 -162 -166 -123 -268 -269 -358
-512 -17 -45 -19 -48 -25 -25 -10 39 -30 -103 -30 -210 0 -218 90 -453 237
-619 199 -226 531 -351 827 -312 388 52 687 307 802 686 26 83 28 103 28 260
0 156 -3 177 -27 258 -66 215 -201 404 -370 519 -92 62 -224 123 -240 109 -10
-8 -34 -7 -91 4 -85 16 -311 19 -385 4z m259 -30 c67 -29 85 -67 65 -135 -14
-50 -15 -229 -1 -253 5 -8 -9 -11 -45 -11 -45 0 -50 -2 -39 -15 9 -11 9 -15 1
-15 -7 0 -9 -4 -6 -10 3 -5 15 -10 27 -10 15 0 18 4 14 16 -6 14 -4 15 9 4 13
-11 13 -15 3 -21 -7 -5 -21 -9 -30 -9 -23 0 -23 -2 7 -46 14 -20 25 -45 25
-54 0 -10 8 -27 18 -39 16 -19 20 -20 75 -7 31 8 55 10 51 5 -3 -5 10 -9 28
-9 19 0 43 -7 55 -15 12 -8 28 -13 35 -10 8 3 23 -7 36 -25 13 -16 29 -30 37
-30 17 0 17 -2 9 -24 -3 -9 -14 -16 -23 -16 -12 0 -13 2 -3 9 11 7 11 9 -2 14
-19 7 -19 4 -5 -48 12 -44 37 -78 50 -69 16 10 9 -13 -8 -27 -12 -10 -15 -10
-9 -1 7 12 -40 72 -56 72 -4 0 -21 -20 -38 -45 -32 -46 -74 -75 -108 -75 -11
0 -43 16 -72 35 -29 19 -57 35 -62 35 -8 0 -9 -32 -4 -96 5 -67 3 -100 -5
-110 -8 -10 -8 -14 0 -14 6 0 11 -7 11 -16 0 -8 -5 -12 -10 -9 -6 4 -10 3 -9
-2 4 -23 -3 -33 -26 -33 -27 0 -33 -18 -13 -38 9 -9 9 -12 1 -12 -7 0 -15 5
-18 10 -4 6 -11 7 -17 4 -7 -5 -9 0 -6 14 6 21 3 22 -80 23 -66 0 -81 3 -63
10 23 9 23 10 6 29 -18 20 -17 20 16 21 31 1 32 2 9 8 -21 6 -24 12 -22 40 2
18 0 31 -5 28 -5 -3 -7 7 -5 24 2 17 0 29 -7 29 -7 0 -8 8 -1 26 12 31 -3 64
-28 64 -10 0 -27 18 -40 44 l-24 44 27 46 c34 59 41 59 13 1 -17 -35 -20 -51
-12 -72 8 -25 65 -73 85 -73 4 0 9 64 11 143 4 135 9 163 40 211 10 15 10 19
1 23 -7 3 -12 17 -12 31 1 16 3 20 6 10 6 -23 33 -32 33 -10 1 16 1 16 11 0
15 -27 39 -22 39 7 0 25 -1 25 -87 26 -49 1 -78 4 -65 6 26 5 26 6 10 50 -9
26 -9 43 1 83 11 42 10 59 -4 115 -14 59 -14 67 0 96 18 34 82 68 128 69 16 0
50 -9 77 -21z m-428 -362 c-12 -13 -22 -35 -22 -49 0 -18 -6 -27 -22 -31 -21
-5 -21 -5 -5 7 9 7 17 23 17 35 0 11 9 30 20 41 28 28 38 25 12 -3z m688 3
c11 -11 20 -31 20 -45 0 -13 8 -29 18 -34 19 -12 12 -14 -12 -5 -9 3 -16 17
-16 31 0 13 -11 35 -25 48 -13 14 -20 25 -15 25 6 0 19 -9 30 -20z m-615 -90
c-10 -11 -28 -20 -40 -20 -11 0 -26 -5 -33 -12 -16 -16 -23 -7 -16 19 5 18 9
20 23 11 13 -8 25 -7 47 5 39 20 40 20 19 -3z m185 5 c11 -13 10 -14 -4 -9 -9
3 -16 10 -16 15 0 13 6 11 20 -6z m356 -1 c20 -14 30 -15 49 -6 23 11 25 9 25
-13 0 -14 -4 -25 -10 -25 -5 0 -10 5 -10 10 0 6 -11 10 -24 10 -13 0 -34 9
-47 20 -29 24 -18 26 17 4z m-724 -34 c-14 -25 -15 -33 -4 -51 14 -22 2 -49
-22 -49 -6 0 -5 4 3 9 9 6 11 18 6 41 -7 32 9 80 26 80 5 0 0 -13 -9 -30z
m101 -55 c-3 -9 -18 -22 -34 -31 -16 -8 -29 -20 -29 -27 0 -8 -4 -7 -10 3 -15
24 -12 39 8 33 10 -2 29 5 43 16 29 25 30 25 22 6z m757 -28 l25 -4 -26 -2
c-15 0 -33 7 -40 17 -12 15 -12 16 1 5 8 -6 26 -13 40 -16z m-918 -62 c-2 -20
1 -42 9 -51 10 -12 9 -18 -6 -32 -10 -9 -15 -11 -11 -4 4 7 2 28 -4 47 -8 25
-8 40 0 55 15 28 17 25 12 -15z m84 -64 c-14 -15 -23 -30 -19 -34 3 -4 1 -7
-5 -7 -7 0 -12 2 -12 4 0 2 -3 11 -6 20 -4 10 -1 16 9 16 9 0 24 11 34 24 10
13 20 20 22 14 2 -5 -9 -22 -23 -37z m230 30 c-3 -4 -10 -21 -16 -37 l-12 -29
-13 25 c-19 34 -18 39 4 33 10 -3 22 0 25 6 4 6 9 11 12 11 3 0 3 -4 0 -9z
m-67 -37 c24 -41 26 -54 8 -78 -12 -16 -13 -14 -9 17 2 20 -3 48 -12 66 -22
42 -13 39 13 -5z m766 1 c0 -22 -2 -23 -15 -9 -13 13 -13 16 0 24 8 5 15 10
15 10 0 0 0 -11 0 -25z m-1024 -121 c17 -18 17 -22 4 -40 -13 -16 -14 -17 -9
-1 4 10 0 25 -10 35 -16 19 -21 43 -16 77 2 11 5 5 7 -15 3 -19 13 -44 24 -56z
m77 4 c-7 -13 -14 -27 -14 -33 -1 -5 -2 -14 -3 -19 -1 -10 -30 24 -31 35 0 4
9 9 21 12 11 3 23 16 26 28 4 13 8 18 10 12 3 -7 -2 -22 -9 -35z m247 -8 c14
-27 23 -50 20 -50 -2 0 -11 14 -20 30 -19 37 -38 38 -54 4 -6 -15 -14 -24 -16
-22 -5 4 36 88 42 88 2 0 14 -22 28 -50z m-80 1 c-3 -6 -14 -11 -23 -11 -15 1
-15 2 2 15 21 16 32 13 21 -4z m800 -1 c-10 -11 -21 -18 -23 -15 -3 3 3 12 14
20 27 20 30 18 9 -5z m-820 -49 c-3 -6 -11 -11 -17 -11 -6 0 -6 6 2 15 14 17
26 13 15 -4z m163 0 c3 -8 -1 -12 -9 -9 -7 2 -15 10 -17 17 -3 8 1 12 9 9 7
-2 15 -10 17 -17z m-298 -86 c-8 -9 -8 -15 0 -20 5 -3 10 -11 10 -17 0 -6 -9
-3 -20 7 -18 16 -19 20 -5 35 8 9 16 30 17 46 1 28 1 28 5 -4 3 -18 -1 -39 -7
-47z m-69 -9 c13 -9 18 -16 11 -16 -21 0 -62 48 -62 72 1 20 2 19 14 -8 8 -17
24 -39 37 -48z m953 2 c8 -5 7 -8 -1 -8 -7 0 -17 9 -23 19 -14 27 -12 41 2 16
6 -11 16 -23 22 -27z m76 18 c0 -2 -8 -10 -17 -17 -16 -13 -17 -12 -4 4 13 16
21 21 21 13z m-890 -106 c0 -14 6 -32 13 -39 10 -11 9 -13 -6 -7 -10 3 -24 6
-30 6 -8 0 -7 4 1 12 15 15 16 54 2 63 -5 3 -10 12 -10 18 1 24 30 -28 30 -53z
m734 -12 c3 -16 3 -28 -2 -28 -4 0 -9 14 -10 32 -3 37 2 35 12 -4z m-797 -38
c10 0 24 -9 31 -20 7 -11 8 -20 3 -20 -5 0 -11 7 -15 15 -3 8 -14 15 -24 15
-20 0 -62 35 -62 52 0 6 11 -1 25 -16 13 -14 32 -26 42 -26z m156 -37 c17 -38
16 -50 -2 -38 -6 3 -11 16 -11 27 0 12 -8 30 -17 40 -13 15 -14 18 -2 13 8 -3
23 -22 32 -42z m414 31 c-3 -3 -12 -4 -19 -1 -8 3 -5 6 6 6 11 1 17 -2 13 -5z
m137 -19 c-8 -13 -13 -28 -10 -34 5 -8 -23 -26 -29 -19 -4 4 44 78 50 78 3 0
-2 -11 -11 -25z m-463 -18 c-10 -9 -11 -8 -5 6 3 10 9 15 12 12 3 -3 0 -11 -7
-18z m82 3 c-3 -12 -8 -19 -11 -16 -5 6 5 36 12 36 2 0 2 -9 -1 -20z m68 -3
c-10 -9 -11 -8 -5 6 3 10 9 15 12 12 3 -3 0 -11 -7 -18z m220 -6 c0 10 2 11 6
1 2 -6 10 -9 16 -6 7 4 -3 -7 -21 -25 -18 -17 -30 -35 -27 -41 3 -5 -3 -10
-14 -10 l-21 0 21 21 c15 15 19 28 14 47 -5 22 -4 24 9 13 13 -11 16 -11 17 0z
m-361 -41 c7 -16 19 -31 28 -33 12 -3 10 -5 -5 -6 -13 0 -23 5 -23 12 0 8 -9
22 -20 32 -23 21 -26 37 -6 29 8 -3 20 -18 26 -34z m117 34 c-3 -3 -12 -4 -19
-1 -8 3 -5 6 6 6 11 1 17 -2 13 -5z m-286 -45 c9 0 10 -2 2 -5 -15 -7 -53 13
-53 28 0 6 8 4 18 -5 10 -10 25 -17 33 -18z m48 -3 c10 -12 8 -13 -8 -9 -12 3
-18 9 -15 14 7 12 10 11 23 -5z m601 0 c0 -2 -7 -7 -16 -10 -8 -3 -12 -2 -9 4
6 10 25 14 25 6z m-238 -22 c-12 -8 -22 -22 -22 -31 0 -13 -3 -13 -15 -3 -14
11 -12 15 12 31 35 22 56 25 25 3z m-103 -16 c11 -3 11 -6 -1 -16 -12 -10 -17
-7 -27 15 -10 21 -10 24 1 16 7 -6 19 -12 27 -15z m-135 -28 c2 -3 -15 -6 -39
-8 -24 -1 -46 1 -48 5 -5 8 79 11 87 3z m405 -6 c2 -2 -17 -3 -42 -2 -25 1
-41 6 -35 10 11 6 67 0 77 -8z m-239 -54 c15 0 33 7 40 15 10 12 16 13 26 4 8
-6 27 -9 44 -7 28 4 29 4 14 -14 -16 -17 -14 -19 29 -37 73 -31 144 -50 216
-57 36 -4 73 -11 81 -15 20 -12 -100 -1 -170 16 -30 7 -86 25 -125 39 -105 39
-200 36 -329 -9 -89 -31 -261 -63 -273 -51 -7 6 27 13 102 21 52 6 219 55 233
70 3 3 -2 13 -11 23 -16 18 -15 18 14 14 24 -3 34 0 42 14 10 17 11 17 25 -4
9 -14 25 -22 42 -22z m31 -80 c20 0 26 -15 9 -25 -5 -3 -10 -15 -10 -27 0 -17
-2 -18 -15 -8 -12 10 -18 10 -31 -1 -15 -12 -16 -11 -10 8 4 12 2 24 -4 28
-15 9 -12 25 5 25 9 0 19 8 23 18 6 16 7 16 10 0 2 -10 12 -18 23 -18z m114
-16 c20 -13 27 -13 45 -2 18 11 23 10 38 -8 13 -16 37 -25 97 -34 44 -7 89
-16 102 -21 20 -7 21 -11 10 -38 -14 -38 -29 -41 -22 -3 l5 27 -11 -25 c-10
-21 -13 -22 -16 -7 -3 9 -9 17 -15 17 -5 0 -8 -7 -4 -15 3 -8 1 -15 -3 -15 -5
0 -12 6 -14 13 -3 7 -6 5 -6 -5 -1 -23 -13 -23 -42 2 l-24 20 25 20 25 20 -22
0 c-13 0 -23 -6 -23 -12 0 -24 -16 -39 -34 -32 -13 5 -16 14 -12 33 3 14 3 20
0 14 -3 -7 -15 -13 -27 -13 -22 -1 -22 -1 -3 -15 18 -13 18 -15 3 -15 -26 0
-34 30 -12 46 17 13 17 14 2 14 -9 0 -17 -4 -17 -8 0 -5 -7 -17 -15 -28 -15
-18 -16 -17 -10 16 4 29 3 31 -5 13 -10 -25 -26 -32 -16 -8 3 8 1 15 -4 15 -6
0 -10 -8 -10 -17 0 -15 -2 -14 -14 3 -16 22 -18 64 -4 64 5 0 19 -7 33 -16z
m-342 -21 c-4 -11 -3 -14 5 -9 8 5 12 -1 12 -18 0 -14 0 -29 0 -33 0 -4 -14
-9 -31 -11 -25 -3 -31 0 -26 12 4 10 1 16 -7 16 -9 0 -12 -8 -9 -24 3 -13 0
-27 -6 -30 -7 -5 -11 2 -11 18 0 14 -5 26 -11 26 -6 0 -8 -9 -4 -20 3 -11 4
-24 1 -29 -10 -15 -47 0 -56 23 -8 19 -9 19 -9 -6 -1 -25 -21 -42 -21 -18 0 6
-4 10 -10 10 -5 0 -7 -8 -3 -17 4 -14 1 -13 -18 5 -19 18 -21 24 -10 31 11 7
10 10 -5 14 -13 3 -10 5 10 6 24 1 27 3 16 16 -8 9 -9 15 -2 15 6 0 14 -5 18
-11 4 -8 22 -9 53 -4 25 3 61 9 80 12 31 5 33 3 28 -16 -3 -12 -1 -18 4 -15 5
3 7 21 3 40 -4 22 -2 34 5 34 6 0 8 -7 4 -17z m-306 -75 c-3 -7 -5 -2 -5 12 0
14 2 19 5 13 2 -7 2 -19 0 -25z m1020 0 c-3 -8 -6 -5 -6 6 -1 11 2 17 5 13 3
-3 4 -12 1 -19z m-327 -32 c46 -15 125 -31 175 -36 l90 -9 -95 4 c-67 2 -121
11 -185 31 -123 38 -226 38 -345 0 -60 -19 -113 -28 -180 -31 l-95 -4 90 9
c50 5 129 21 175 36 151 48 218 48 370 0z"/>
<path d="M960 1828 c0 -11 22 -10 40 2 11 8 9 9 -12 8 -16 -1 -28 -6 -28 -10z"/>
<path d="M890 1799 c-21 -18 -22 -20 -5 -17 13 2 20 -3 23 -17 2 -12 0 -16 -5
-9 -4 6 -16 11 -26 11 -16 0 -15 -2 3 -22 11 -12 18 -28 15 -36 -3 -8 1 -23 8
-33 15 -20 47 -28 115 -28 25 0 42 -4 42 -11 1 -28 40 38 40 68 0 25 5 34 23
40 21 8 21 8 -6 12 -15 2 -25 9 -22 14 4 5 0 9 -9 9 -8 0 -16 -3 -19 -7 -2 -5
-3 -3 -1 3 5 22 -18 34 -34 17 -14 -14 -17 -14 -27 1 -8 11 -15 12 -22 5 -8
-8 -18 -7 -34 2 -22 11 -23 11 -10 -4 9 -12 10 -17 2 -17 -8 0 -9 -5 -2 -19 8
-14 7 -22 -6 -32 -15 -13 -16 -11 -10 13 5 17 2 32 -7 41 -11 11 -12 17 -3 26
18 18 4 12 -23 -10z m160 -19 c0 -5 -5 -10 -11 -10 -5 0 -7 5 -4 10 3 6 8 10
11 10 2 0 4 -4 4 -10z m24 -46 c3 -8 2 -12 -4 -9 -6 3 -10 10 -10 16 0 14 7
11 14 -7z"/>
<path d="M946 1608 c-3 -17 -9 -28 -12 -25 -12 12 -42 -13 -53 -44 -10 -28 -8
-33 21 -60 18 -16 37 -29 43 -29 5 0 3 5 -5 11 -11 7 6 8 58 3 68 -6 75 -4 98
17 29 28 30 48 4 77 -21 23 -36 30 -25 12 3 -5 1 -10 -4 -10 -6 0 -18 15 -26
33 -10 21 -14 25 -14 12 2 -34 -1 -41 -11 -25 -8 12 -10 11 -10 -6 0 -17 8
-23 35 -28 20 -4 33 -11 30 -16 -3 -6 1 -7 9 -4 10 4 16 1 16 -9 0 -8 -6 -17
-12 -19 -27 -10 -99 -8 -118 2 -14 7 -20 7 -20 0 0 -5 -7 -10 -16 -10 -9 0
-12 5 -8 12 5 8 2 9 -9 5 -20 -7 -29 5 -21 28 5 11 17 16 38 15 54 -3 56 -2
56 42 0 45 -9 48 -12 5 -1 -15 -7 -26 -13 -24 -5 2 -9 18 -7 35 4 41 -4 41
-12 0z"/>
<path d="M986 1532 c-9 -14 9 -31 23 -23 7 5 10 14 7 20 -8 13 -23 14 -30 3z"/>
<path d="M965 1355 c-17 -17 -25 -33 -22 -45 3 -11 -1 -24 -9 -31 -8 -6 -11
-15 -8 -20 8 -13 25 0 18 14 -3 7 1 4 10 -7 11 -14 23 -17 45 -13 17 4 33 3
36 -2 2 -5 -1 -8 -8 -8 -22 1 -97 -15 -97 -22 0 -3 5 -13 10 -21 8 -13 10 -12
10 3 0 12 8 17 28 17 21 0 24 -2 12 -10 -13 -8 -12 -10 3 -10 9 0 17 -4 17
-10 0 -5 -5 -10 -11 -10 -5 0 -7 -5 -3 -12 5 -8 2 -9 -9 -5 -10 3 -17 2 -17
-3 0 -6 7 -10 15 -10 9 0 12 -6 9 -15 -4 -9 0 -15 10 -15 9 0 15 3 15 8 -5 30
4 61 19 67 14 5 15 4 5 -6 -7 -7 -13 -28 -13 -46 0 -19 -5 -33 -12 -33 -7 0
-4 -6 5 -12 23 -18 9 -36 -33 -41 l-35 -4 39 -1 c33 -2 37 -4 26 -17 -10 -12
-9 -16 2 -20 10 -4 14 -18 12 -43 -2 -20 -3 -41 -4 -47 0 -5 -5 -3 -10 5 -11
16 -11 14 -12 -45 -1 -78 1 -87 17 -81 8 3 15 1 15 -4 0 -6 8 -10 18 -10 15 0
17 6 14 35 -2 19 -8 38 -13 41 -5 3 -9 10 -9 15 0 6 4 8 8 5 11 -7 12 66 1 80
-12 14 -8 254 5 254 5 0 6 3 3 7 -4 3 -2 12 3 18 7 9 6 16 -5 25 -8 7 -15 27
-15 46 0 23 -7 38 -22 48 -29 21 -30 20 -63 -9z m45 -19 c0 -2 -11 -6 -25 -8
-14 -3 -25 -1 -25 3 0 5 11 9 25 9 14 0 25 -2 25 -4z m20 -41 c7 -9 2 -12 -22
-13 -40 -1 -52 6 -38 23 12 14 44 9 60 -10z m0 -85 c0 -5 -2 -10 -4 -10 -3 0
-8 5 -11 10 -3 6 -1 10 4 10 6 0 11 -4 11 -10z m10 -342 c0 -19 -16 -5 -17 14
-2 18 0 20 7 8 5 -8 10 -18 10 -22z"/>
<path d="M1162 1185 c-6 -14 -18 -25 -27 -25 -19 0 -20 -49 -1 -94 17 -41 71
-103 97 -111 30 -10 87 39 115 99 30 65 30 90 -1 110 -14 9 -25 23 -25 31 0
12 -15 15 -73 15 -69 0 -75 -2 -85 -25z"/>
<path d="M938 1121 c3 -22 8 -28 23 -24 10 3 19 0 19 -6 0 -6 5 -11 10 -11 20
0 9 20 -14 26 -13 3 -23 12 -22 21 0 9 -4 18 -10 20 -7 2 -9 -7 -6 -26z"/>
<path d="M940 996 c0 -9 5 -16 10 -16 6 0 10 4 10 9 0 6 -4 13 -10 16 -5 3
-10 -1 -10 -9z"/>
<path d="M980 971 c0 -5 5 -13 10 -16 6 -3 10 -2 10 4 0 5 -4 13 -10 16 -5 3
-10 2 -10 -4z"/>
<path d="M920 933 c0 -24 12 -28 45 -12 19 9 18 9 -3 5 -13 -3 -26 2 -32 12
-8 15 -9 14 -10 -5z"/>
<path d="M948 853 c7 -3 16 -2 19 1 4 3 -2 6 -13 5 -11 0 -14 -3 -6 -6z"/>
<path d="M970 820 c0 -5 5 -10 10 -10 6 0 10 5 10 10 0 6 -4 10 -10 10 -5 0
-10 -4 -10 -10z"/>
<path d="M930 770 c-8 -5 -11 -12 -7 -16 4 -4 13 -2 19 4 15 15 7 24 -12 12z"/>
<path d="M1010 770 c0 -13 28 -25 38 -16 3 4 0 11 -8 16 -20 13 -30 12 -30 0z"/>
<path d="M1180 400 c0 -5 5 -10 11 -10 5 0 7 5 4 10 -3 6 -8 10 -11 10 -2 0
-4 -4 -4 -10z"/>
<path d="M1090 389 c0 -5 5 -7 10 -4 6 3 10 8 10 11 0 2 -4 4 -10 4 -5 0 -10
-5 -10 -11z"/>
<path d="M1335 339 c-4 -6 -4 -13 -1 -16 3 -4 6 -1 6 5 0 6 8 13 18 15 15 4
15 5 0 6 -9 0 -20 -4 -23 -10z"/>
</g>
</svg>
