<?xml version="1.0" encoding="UTF-8" standalone="no"?>
<svg
   xmlns:dc="http://purl.org/dc/elements/1.1/"
   xmlns:cc="http://creativecommons.org/ns#"
   xmlns:rdf="http://www.w3.org/1999/02/22-rdf-syntax-ns#"
   xmlns:svg="http://www.w3.org/2000/svg"
   xmlns="http://www.w3.org/2000/svg"
   version="1.1"
   width="61.584904"
   viewBox="0 0 61.584904 72"
   height="72"
   enable-background="new 0 0 512 512"
   id="Capa_1">
  <metadata
     id="metadata33">
    <rdf:RDF>
      <cc:Work
         rdf:about="">
        <dc:format>image/svg+xml</dc:format>
        <dc:type
           rdf:resource="http://purl.org/dc/dcmitype/StillImage" />
        <dc:title></dc:title>
      </cc:Work>
    </rdf:RDF>
  </metadata>
  <defs
     id="defs31" />
  <g
     style="fill:#ffffff;fill-opacity:1"
     transform="matrix(0.14062503,0,0,0.14062503,-5.2074855,-1.3827257e-5)"
     id="g26">
    <path
       style="fill:#ffffff;fill-opacity:1"
       id="path2"
       d="m 452.402,226.533 -17.071,-28.665 c -4.8,-8.06 -7.337,-17.281 -7.337,-26.665 0,-14.244 5.931,-28.031 16.271,-37.826 l 9.153,-8.671 c 14.134,-13.388 16.702,-34.96 6.105,-51.292 L 423.877,18.474 C 412.398,0.783 389.695,-5.103 371.07,4.789 l -22.12,11.744 c -18.536,9.84 -40.869,10.244 -59.745,1.084 l -15.578,-7.56 C 262.422,4.622 249.572,4.622 238.371,10.059 l -15.572,7.556 c -18.88,9.161 -41.217,8.755 -59.749,-1.088 L 140.934,4.783 C 122.305,-5.11 99.601,0.773 88.121,18.468 L 52.475,73.414 c -10.595,16.334 -8.026,37.905 6.109,51.293 l 9.146,8.662 c 10.343,9.796 16.275,23.584 16.275,37.83 0,9.381 -2.537,18.599 -7.336,26.66 l -17.071,28.665 c -14.763,24.789 -22.567,53.147 -22.567,82.007 0,88.368 71.897,160.261 160.271,160.261 6.584,0 12.859,2.832 17.215,7.77 l 24.494,27.771 c 4.3,4.872 10.492,7.667 16.989,7.667 6.498,0 12.69,-2.795 16.988,-7.668 l 24.492,-27.768 c 4.356,-4.938 10.633,-7.77 17.226,-7.77 42.807,0 83.051,-16.67 113.319,-46.936 30.272,-30.27 46.943,-70.516 46.943,-113.325 0,-28.856 -7.804,-57.211 -22.566,-82 z m -34.984,184.718 c -27.435,27.435 -63.912,42.544 -102.722,42.544 -10.887,0 -21.262,4.682 -28.465,12.848 l -24.493,27.768 c -3,3.402 -8.477,3.401 -11.477,0 l -24.494,-27.77 c -7.202,-8.166 -17.577,-12.848 -28.464,-12.848 -80.103,0 -145.271,-65.163 -145.271,-145.261 0,-26.159 7.073,-51.862 20.455,-74.332 l 17.071,-28.666 c 6.181,-10.381 9.448,-22.253 9.448,-34.334 0,-18.347 -7.64,-36.105 -20.961,-48.72 l -9.146,-8.662 C 60.015,105.403 58.4,91.845 65.059,81.58 l 35.646,-54.946 c 4.856,-7.485 12.907,-11.607 21.223,-11.607 4.04,0 8.143,0.973 11.971,3.006 l 22.115,11.744 c 22.747,12.079 50.161,12.58 73.334,1.335 l 15.573,-7.557 c 7.039,-3.418 15.117,-3.418 22.159,-0.001 l 15.577,7.559 c 23.168,11.243 50.581,10.746 73.326,-1.33 l 22.12,-11.744 c 11.707,-6.216 25.977,-2.518 33.192,8.601 l 35.646,54.94 c 6.661,10.265 5.047,23.823 -3.837,32.238 l -9.154,8.671 c -13.317,12.615 -20.955,30.371 -20.955,48.716 0,12.085 3.267,23.959 9.448,34.34 l 17.072,28.666 c 13.381,22.467 20.454,48.169 20.454,74.323 -10e-4,38.801 -15.112,75.281 -42.551,102.717 -27.435,27.434 27.439,-27.436 0,0 z" />
    <path
       style="fill:#ffffff;fill-opacity:1"
       id="path4"
       d="m 426.364,242.039 -17.071,-28.665 c -7.592,-12.749 -11.604,-27.329 -11.604,-42.166 0,-22.532 9.38,-44.34 25.735,-59.832 l 9.157,-8.673 c 3.522,-3.34 4.163,-8.72 1.521,-12.795 l -35.65,-54.945 c -2.865,-4.407 -8.526,-5.873 -13.172,-3.409 l -22.12,11.744 c -27.045,14.357 -59.639,14.95 -87.187,1.582 l -15.57,-7.555 c -2.8,-1.362 -6.011,-1.363 -8.802,-0.003 l -15.572,7.556 C 208.477,58.247 175.882,57.654 148.836,43.292 L 126.72,31.547 c -4.571,-2.426 -10.362,-0.914 -13.175,3.415 L 77.899,89.907 c -2.644,4.077 -2.002,9.459 1.524,12.797 l 9.146,8.662 c 16.359,15.493 25.742,37.301 25.742,59.833 0,14.837 -4.013,29.417 -11.603,42.164 L 85.636,242.03 c -11.971,20.102 -18.299,43.095 -18.299,66.493 0,71.662 58.298,129.965 129.957,129.965 15.284,0 29.846,6.571 39.952,18.028 l 13.13,14.886 c 2.94,3.334 8.309,3.335 11.248,0 l 13.131,-14.884 c 10.105,-11.458 24.662,-18.029 39.952,-18.029 34.712,0 67.346,-13.517 91.89,-38.061 24.547,-24.546 38.065,-57.182 38.065,-91.896 0.001,-23.398 -6.327,-46.392 -18.298,-66.493 z M 407.803,376.003 H 186.002 c -4.142,0 -7.5,3.357 -7.5,7.5 0,4.142 3.358,7.5 7.5,7.5 h 208.779 c -21.57,20.959 -49.934,32.487 -80.086,32.487 -19.581,0 -38.238,8.422 -51.189,23.107 l -7.505,8.508 -7.506,-8.51 c -12.951,-14.684 -31.613,-23.106 -51.2,-23.106 -31.065,0 -59.286,-12.392 -79.995,-32.486 h 33.703 c 4.142,0 7.5,-3.357 7.5,-7.5 0,-4.142 -3.358,-7.5 -7.5,-7.5 h -46.719 c -13.795,-18.965 -21.947,-42.286 -21.947,-67.48 0,-9.313 1.143,-18.551 3.354,-27.518 h 258.123 c 4.142,0 7.5,-3.357 7.5,-7.5 0,-4.143 -3.357,-7.5 -7.5,-7.5 H 90.504 c 2.235,-5.616 4.905,-11.071 8.02,-16.3 l 17.072,-28.668 c 8.973,-15.067 13.715,-32.301 13.715,-49.839 0,-26.634 -11.091,-52.412 -30.427,-70.724 l -6.17,-5.844 30.958,-47.72 18.13,9.629 c 31.259,16.598 68.931,17.284 100.777,1.832 L 256,51.86 l 13.425,6.514 c 31.838,15.451 69.51,14.768 100.769,-1.828 l 18.134,-9.628 30.958,47.716 -6.179,5.851 c -19.332,18.312 -30.419,44.09 -30.419,70.722 0,17.538 4.743,34.772 13.715,49.84 l 17.072,28.667 c 3.112,5.227 5.781,10.679 8.016,16.292 h -42.679 c -4.142,0 -7.5,3.357 -7.5,7.5 0,4.143 3.357,7.5 7.5,7.5 h 47.493 c 2.213,8.97 3.357,18.21 3.357,27.527 0.001,24.578 -7.667,47.975 -21.859,67.47 z" />
    <path
       style="fill:#ffffff;fill-opacity:1"
       id="path6"
       d="m 259.577,346.215 c -3.33,0.019 -6.839,0.032 -9.794,0.038 v -42.001 c 0,-4.142 -3.358,-7.5 -7.5,-7.5 -4.142,0 -7.5,3.357 -7.5,7.5 v 49.463 c 0,3.653 2.633,6.775 6.234,7.392 0.538,0.092 0.894,0.153 6.442,0.153 2.667,0 6.536,-0.015 12.201,-0.046 4.142,-0.023 7.481,-3.399 7.458,-7.542 -0.022,-4.142 -3.413,-7.462 -7.541,-7.457 z" />
    <path
       style="fill:#ffffff;fill-opacity:1"
       id="path8"
       d="m 285.871,296.752 c -4.142,0 -7.5,3.357 -7.5,7.5 v 49.505 c 0,4.142 3.357,7.5 7.5,7.5 4.143,0 7.5,-3.357 7.5,-7.5 v -49.505 c -10e-4,-4.142 -3.358,-7.5 -7.5,-7.5 z" />
    <path
       style="fill:#ffffff;fill-opacity:1"
       id="path10"
       d="m 399.482,346.031 h -13.17 v -9.527 h 11.645 c 4.142,0 7.5,-3.357 7.5,-7.5 0,-4.142 -3.357,-7.5 -7.5,-7.5 h -11.645 v -9.527 h 13.17 c 4.142,0 7.5,-3.357 7.5,-7.5 0,-4.143 -3.357,-7.5 -7.5,-7.5 h -20.669 c -4.142,0 -7.5,3.357 -7.5,7.5 v 49.053 c 0,4.142 3.357,7.5 7.5,7.5 h 20.669 c 4.142,0 7.5,-3.357 7.5,-7.5 0,-4.141 -3.357,-7.499 -7.5,-7.499 z" />
    <path
       style="fill:#ffffff;fill-opacity:1"
       id="path12"
       d="m 357.505,341.021 c -3.176,-2.659 -7.905,-2.242 -10.566,0.932 -0.387,0.462 -0.807,0.895 -1.248,1.289 -2.247,2.001 -5.139,3.016 -8.596,3.016 -9.513,0 -17.253,-7.739 -17.253,-17.253 0,-9.513 7.739,-17.253 17.253,-17.253 3.458,0 6.792,1.018 9.641,2.942 3.432,2.318 8.094,1.416 10.413,-2.017 2.318,-3.433 1.416,-8.095 -2.017,-10.413 -5.339,-3.606 -11.576,-5.513 -18.038,-5.513 -17.784,0 -32.252,14.468 -32.252,32.252 0,17.784 14.468,32.252 32.252,32.252 7.145,0 13.568,-2.356 18.574,-6.815 0.984,-0.877 1.915,-1.837 2.768,-2.854 2.66,-3.174 2.243,-7.904 -0.931,-10.565 z" />
    <path
       style="fill:#ffffff;fill-opacity:1"
       id="path14"
       d="m 126.303,296.752 h -13.784 c -4.082,0 -7.5,3.417 -7.5,7.5 v 49.505 c 0,4.142 3.358,7.5 7.5,7.5 4.142,0 7.5,-3.357 7.5,-7.5 v -14.043 c 2.383,-0.011 4.793,-0.021 6.285,-0.021 11.989,0 21.744,-9.632 21.744,-21.47 -0.001,-11.839 -9.755,-21.471 -21.745,-21.471 z m 0,27.941 c -1.48,0 -3.862,0.009 -6.229,0.021 -0.011,-2.465 -0.021,-4.963 -0.021,-6.491 0,-1.308 -0.006,-3.882 -0.013,-6.471 h 6.263 c 3.656,0 6.744,2.963 6.744,6.471 0,3.508 -3.088,6.47 -6.744,6.47 z" />
    <path
       style="fill:#ffffff;fill-opacity:1"
       id="path16"
       d="m 191.279,296.752 c -17.784,0 -32.252,14.468 -32.252,32.252 0,17.784 14.468,32.252 32.252,32.252 17.784,0 32.253,-14.468 32.253,-32.252 -0.001,-17.783 -14.469,-32.252 -32.253,-32.252 z m 0,49.505 c -9.513,0 -17.253,-7.739 -17.253,-17.253 0,-9.513 7.74,-17.253 17.253,-17.253 9.513,0 17.253,7.739 17.253,17.253 0,9.514 -7.74,17.253 -17.253,17.253 z" />
    <path
       style="fill:#ffffff;fill-opacity:1"
       id="path18"
       d="m 329.454,137.629 -41.709,-6.06 c -0.814,-0.118 -1.518,-0.63 -1.883,-1.368 L 267.208,92.405 c -2.121,-4.298 -6.416,-6.967 -11.208,-6.968 -4.792,0 -9.087,2.67 -11.209,6.968 l -18.653,37.796 c -0.364,0.738 -1.068,1.25 -1.882,1.368 l -41.712,6.06 c -4.743,0.69 -8.608,3.95 -10.089,8.509 -1.48,4.557 -0.269,9.467 3.163,12.812 l 30.181,29.419 c 0.589,0.575 0.858,1.402 0.719,2.214 l -7.125,41.541 c -0.811,4.724 1.095,9.409 4.973,12.225 3.826,2.782 8.976,3.154 13.164,0.952 l 37.308,-19.614 c 0.728,-0.383 1.598,-0.383 2.325,10e-4 l 37.307,19.613 c 4.239,2.227 9.285,1.866 13.163,-0.951 3.878,-2.816 5.784,-7.502 4.974,-12.225 l -7.125,-41.543 c -0.139,-0.811 0.131,-1.638 0.72,-2.212 l 30.181,-29.42 c 3.433,-3.345 4.644,-8.255 3.164,-12.812 -1.481,-4.559 -5.348,-7.818 -10.093,-8.509 z m -33.724,40 c -4.125,4.022 -6.006,9.813 -5.031,15.489 l 6.268,36.55 -32.822,-17.255 c -5.052,-2.659 -11.235,-2.659 -16.287,-0.001 l -32.823,17.256 6.268,-36.549 c 0.974,-5.678 -0.907,-11.468 -5.033,-15.491 l -26.554,-25.884 36.698,-5.332 c 5.701,-0.829 10.626,-4.407 13.175,-9.573 L 256,103.585 l 16.412,33.253 c 2.549,5.166 7.473,8.745 13.176,9.574 l 36.697,5.332 z" />
    <circle
       style="fill:#ffffff;fill-opacity:1"
       id="circle20"
       r="10"
       cy="88.010002"
       cx="373.99701" />
    <circle
       style="fill:#ffffff;fill-opacity:1"
       id="circle22"
       r="10"
       cy="88.010002"
       cx="138.00301" />
    <circle
       style="fill:#ffffff;fill-opacity:1"
       id="circle24"
       r="10"
       cy="416.50201"
       cx="256" />
  </g>
</svg>
