<?xml version="1.0" encoding="UTF-8" standalone="no"?>
<svg
   xmlns:dc="http://purl.org/dc/elements/1.1/"
   xmlns:cc="http://creativecommons.org/ns#"
   xmlns:rdf="http://www.w3.org/1999/02/22-rdf-syntax-ns#"
   xmlns:svg="http://www.w3.org/2000/svg"
   xmlns="http://www.w3.org/2000/svg"
   id="svg190"
   version="1.1"
   width="56.63932pt"
   viewBox="0 -11 56.735973 54.000004"
   height="54.000004pt">
  <metadata
     id="metadata196">
    <rdf:RDF>
      <cc:Work
         rdf:about="">
        <dc:format>image/svg+xml</dc:format>
        <dc:type
           rdf:resource="http://purl.org/dc/dcmitype/StillImage" />
        <dc:title></dc:title>
      </cc:Work>
    </rdf:RDF>
  </metadata>
  <defs
     id="defs194" />
  <path
     style="stroke-width:0.11084;fill:#ffffff;fill-opacity:1"
     id="path2"
     d="m 17.732725,41.769427 c -0.490555,0 -0.886723,-0.396168 -0.886723,-0.886723 v -2.658437 c 0,-0.490122 0.396168,-0.886722 0.886723,-0.886722 0.490122,0 0.886723,0.3966 0.886723,0.886722 v 2.658437 c 0,0.490555 -0.396601,0.886723 -0.886723,0.886723 z m 0,0" />
  <path
     style="stroke-width:0.11084;fill:#ffffff;fill-opacity:1"
     id="path4"
     d="m 18.593903,42.65615 c -0.97808,0 -1.773446,-0.795366 -1.773446,-1.773446 0,-0.470638 0.370622,-0.81052 0.840395,-0.836065 0.508307,-0.03291 0.879795,0.36889 0.933051,0.835199 0.489256,0 0.886723,0.397467 0.886723,0.886723 0,0.490555 -0.397467,0.887589 -0.886723,0.887589 z m 0,0" />
  <path
     style="stroke-width:0.11084;fill:#ffffff;fill-opacity:1"
     id="path6"
     d="m 17.734457,39.11099 c -0.490555,0 -0.886723,-0.396167 -0.886723,-0.886723 0,-2.934238 2.386099,-5.320337 5.320337,-5.320337 0.490555,0 0.886723,0.396601 0.886723,0.886723 0,0.490555 -0.396168,0.886723 -0.886723,0.886723 -1.956159,0 -3.546891,1.590732 -3.546891,3.546891 0,0.490556 -0.396168,0.886723 -0.886723,0.886723 z m 0,0" />
  <path
     style="stroke-width:0.11084;fill:#ffffff;fill-opacity:1"
     id="path8"
     d="m 24.813952,34.677376 h -2.660169 c -0.490122,0 -0.886723,-0.396168 -0.886723,-0.886723 0,-0.490122 0.396601,-0.886723 0.886723,-0.886723 h 2.660169 c 0.490555,0 0.886723,0.396601 0.886723,0.886723 0,0.490555 -0.396168,0.886723 -0.886723,0.886723 z m 0,0" />
  <path
     style="stroke-width:0.11084;fill:#ffffff;fill-opacity:1"
     id="path10"
     d="m 39.001517,39.11099 c -0.490122,0 -0.886723,-0.396167 -0.886723,-0.886723 0,-1.956159 -1.590732,-3.546891 -3.546891,-3.546891 -0.490122,0 -0.886723,-0.396168 -0.886723,-0.886723 0,-0.490122 0.396601,-0.886723 0.886723,-0.886723 2.934239,0 5.320337,2.386099 5.320337,5.320337 0,0.490556 -0.396168,0.886723 -0.886723,0.886723 z m 0,0" />
  <path
     style="stroke-width:0.11084;fill:#ffffff;fill-opacity:1"
     id="path12"
     d="m 34.567903,34.677376 h -2.660168 c -0.490123,0 -0.886723,-0.396168 -0.886723,-0.886723 0,-0.490122 0.3966,-0.886723 0.886723,-0.886723 h 2.660168 c 0.490555,0 0.886723,0.396601 0.886723,0.886723 0,0.490555 -0.396168,0.886723 -0.886723,0.886723 z m 0,0" />
  <path
     style="stroke-width:0.11084;fill:#ffffff;fill-opacity:1"
     id="path14"
     d="m 39.001517,41.769427 c -0.490122,0 -0.886723,-0.396168 -0.886723,-0.886723 v -2.658437 c 0,-0.490122 0.396601,-0.886722 0.886723,-0.886722 0.490555,0 0.886723,0.3966 0.886723,0.886722 v 2.658437 c 0,0.490555 -0.396168,0.886723 -0.886723,0.886723 z m 0,0" />
  <path
     style="stroke-width:0.11084;fill:#ffffff;fill-opacity:1"
     id="path16"
     d="m 38.114794,42.65615 c -0.490122,0 -0.886722,-0.396168 -0.886722,-0.886723 0,-0.490122 0.3966,-0.886723 0.886722,-0.886723 0,-0.490122 0.396601,-0.886723 0.886723,-0.886723 0.490555,0 0.886723,0.396601 0.886723,0.886723 0,0.97808 -0.795366,1.773446 -1.773446,1.773446 z m 0,0" />
  <path
     style="stroke-width:0.11084;fill:#ffffff;fill-opacity:1"
     id="path18"
     d="M 38.114794,42.65615 H 18.606892 c -0.490122,0 -0.886723,-0.396168 -0.886723,-0.886723 0,-0.490122 0.396601,-0.886723 0.886723,-0.886723 h 19.507902 c 0.490556,0 0.886723,0.396601 0.886723,0.886723 0,0.490555 -0.396167,0.886723 -0.886723,0.886723 z m 0,0" />
  <path
     style="stroke-width:0.11084;fill:#ffffff;fill-opacity:1"
     id="path20"
     d="m 28.359977,32.90393 c -4.889099,0 -8.866362,-3.97683 -8.866362,-8.865496 0,-0.490122 0.3966,-0.886723 0.886723,-0.886723 0.490555,0 0.886722,0.396601 0.886722,0.886723 0,3.910586 3.181465,7.092051 7.092917,7.092051 3.912318,0 7.094649,-3.181465 7.094649,-7.092051 0,-0.490122 0.396601,-0.886723 0.886723,-0.886723 0.490555,0 0.886723,0.396601 0.886723,0.886723 0,4.888666 -3.977697,8.865496 -8.868095,8.865496 z m 0,0" />
  <path
     style="stroke-width:0.11084;fill:#ffffff;fill-opacity:1"
     id="path22"
     d="m 20.380338,24.968887 c -0.490123,0 -0.886723,-0.396601 -0.886723,-0.886723 v -7.141843 c 0,-0.490122 0.3966,-0.886723 0.886723,-0.886723 0.490555,0 0.886722,0.396601 0.886722,0.886723 v 7.141843 c 0,0.489256 -0.396167,0.886723 -0.886722,0.886723 z m 0,0" />
  <path
     style="stroke-width:0.11084;fill:#ffffff;fill-opacity:1"
     id="path24"
     d="m 36.341349,24.925157 c -0.490122,0 -0.886723,-0.396168 -0.886723,-0.886723 v -7.098113 c 0,-0.490122 0.396601,-0.886723 0.886723,-0.886723 0.490555,0 0.886723,0.396601 0.886723,0.886723 v 7.098113 c 0,0.490555 -0.396168,0.886723 -0.886723,0.886723 z m 0,0" />
  <path
     style="stroke-width:0.11084;fill:#ffffff;fill-opacity:1"
     id="path26"
     d="m 24.813952,34.677376 c -0.490122,0 -0.886723,-0.396168 -0.886723,-0.886723 v -2.603449 c 0,-0.490122 0.396601,-0.886723 0.886723,-0.886723 0.490555,0 0.886723,0.396601 0.886723,0.886723 v 2.603449 c 0,0.490555 -0.396168,0.886723 -0.886723,0.886723 z m 0,0" />
  <path
     style="stroke-width:0.11084;fill:#ffffff;fill-opacity:1"
     id="path28"
     d="m 31.907735,34.677376 c -0.490123,0 -0.886723,-0.396168 -0.886723,-0.886723 v -2.609511 c 0,-0.490122 0.3966,-0.886723 0.886723,-0.886723 0.490555,0 0.886722,0.396601 0.886722,0.886723 v 2.609511 c 0,0.490555 -0.396167,0.886723 -0.886722,0.886723 z m 0,0" />
  <path
     style="stroke-width:0.11084;fill:#ffffff;fill-opacity:1"
     id="path30"
     d="m 23.054794,23.148247 c -0.22601,0 -0.452021,-0.08573 -0.625209,-0.25805 L 19.755129,20.23176 c -0.347242,-0.34551 -0.349407,-0.906206 -0.0035,-1.253881 0.345943,-0.346376 0.906206,-0.348974 1.253881,-0.0035 l 2.674457,2.658437 c 0.347675,0.345943 0.349407,0.906206 0.0035,1.253881 -0.173621,0.173621 -0.400931,0.261514 -0.628673,0.261514 z m 0,0" />
  <path
     style="stroke-width:0.11084;fill:#ffffff;fill-opacity:1"
     id="path32"
     d="M 33.695468,23.148247 H 23.054794 c -0.490555,0 -0.886723,-0.396168 -0.886723,-0.886723 0,-0.490122 0.396168,-0.886723 0.886723,-0.886723 h 10.640674 c 0.490555,0 0.886723,0.396601 0.886723,0.886723 0,0.490555 -0.396168,0.886723 -0.886723,0.886723 z m 0,0" />
  <path
     style="stroke-width:0.11084;fill:#ffffff;fill-opacity:1"
     id="path34"
     d="m 33.695468,23.148247 c -0.22601,0 -0.45332,-0.08573 -0.625209,-0.25805 -0.347675,-0.34551 -0.349407,-0.907072 -0.0035,-1.253882 l 2.64588,-2.658436 c 0.345943,-0.346376 0.907939,-0.348974 1.253882,-0.0035 0.347675,0.345943 0.349407,0.907072 0.0035,1.253882 l -2.64588,2.658436 c -0.173621,0.173621 -0.40093,0.261514 -0.628673,0.261514 z m 0,0" />
  <path
     style="stroke-width:0.11084;fill:#ffffff;fill-opacity:1"
     id="path36"
     d="M 36.341349,20.489811 H 20.380338 c -0.490123,0 -0.886723,-0.396168 -0.886723,-0.886723 0,-0.490123 0.3966,-0.886723 0.886723,-0.886723 h 15.961011 c 0.490555,0 0.886723,0.3966 0.886723,0.886723 0,0.490555 -0.396168,0.886723 -0.886723,0.886723 z m 0,0" />
  <path
     style="stroke-width:0.11084;fill:#ffffff;fill-opacity:1"
     id="path38"
     d="M 36.341349,17.827044 H 20.380338 c -0.490123,0 -0.886723,-0.396168 -0.886723,-0.886723 0,-0.490122 0.3966,-0.886723 0.886723,-0.886723 h 15.961011 c 0.490555,0 0.886723,0.396601 0.886723,0.886723 0,0.490555 -0.396168,0.886723 -0.886723,0.886723 z m 0,0" />
  <path
     style="stroke-width:0.11084;fill:#ffffff;fill-opacity:1"
     id="path40"
     d="m 36.341349,17.827044 c -0.110841,0 -0.222547,-0.02035 -0.331655,-0.06365 -0.453753,-0.18358 -0.673702,-0.69968 -0.490988,-1.154732 l 1.786434,-4.433614 c 0.18358,-0.454619 0.700546,-0.671104 1.154732,-0.490988 0.453752,0.183579 0.673701,0.69968 0.490988,1.154298 l -1.786435,4.433614 c -0.139416,0.345944 -0.471937,0.555068 -0.823076,0.555068 z m 0,0" />
  <path
     style="stroke-width:0.11084;fill:#ffffff;fill-opacity:1"
     id="path42"
     d="m 38.128217,13.39343 c -0.100017,0 -0.203063,-0.01775 -0.302214,-0.05326 L 28.05863,9.7950105 c -0.461113,-0.166693 -0.698814,-0.676299 -0.53212,-1.135681 0.167559,-0.461113 0.676732,-0.69535 1.136113,-0.53212 l 9.766941,3.5451595 c 0.461113,0.166693 0.698814,0.676732 0.53212,1.13568 -0.13119,0.361963 -0.470638,0.585376 -0.833467,0.585376 z m 0,0" />
  <path
     style="stroke-width:0.11084;fill:#ffffff;fill-opacity:1"
     id="path44"
     d="m 20.401553,17.826178 c -0.351139,0 -0.68366,-0.209124 -0.822643,-0.555067 l -1.786868,-4.433615 c -0.182713,-0.455051 0.03724,-0.970719 0.491421,-1.154298 0.454619,-0.180116 0.970719,0.03637 1.154299,0.490988 l 1.786867,4.433614 c 0.182714,0.455052 -0.03723,0.971152 -0.491421,1.154732 -0.109108,0.0433 -0.220815,0.06365 -0.331655,0.06365 z m 0,0" />
  <path
     style="stroke-width:0.11084;fill:#ffffff;fill-opacity:1"
     id="path46"
     d="m 18.615118,13.392564 c -0.362829,0 -0.702277,-0.223413 -0.833467,-0.58451 -0.166694,-0.459814 0.07057,-0.968987 0.531687,-1.13568 l 9.767373,-3.5451595 c 0.460248,-0.164962 0.968122,0.07014 1.136114,0.53212 0.166694,0.460248 -0.07101,0.968988 -0.53212,1.135681 l -9.767374,3.5451595 c -0.100016,0.03464 -0.202197,0.05239 -0.302213,0.05239 z m 0,0" />
  <path
     style="stroke-width:0.11084;fill:#ffffff;fill-opacity:1"
     id="path48"
     d="m 26.601685,36.44909 c -0.22601,0 -0.451154,-0.08573 -0.624342,-0.257184 l -1.787734,-1.771714 c -0.348108,-0.344644 -0.350273,-0.905341 -0.0052,-1.253449 0.345077,-0.348541 0.905341,-0.350273 1.253882,-0.0056 l 1.787733,1.771714 c 0.348541,0.345077 0.350273,0.90534 0.0052,1.253881 -0.173621,0.174487 -0.40093,0.26238 -0.629539,0.26238 z m 0,0" />
  <path
     style="stroke-width:0.11084;fill:#ffffff;fill-opacity:1"
     id="path50"
     d="m 26.602551,36.44909 c -0.324727,0 -0.636466,-0.177951 -0.792768,-0.487524 -0.220815,-0.4373 -0.04503,-0.971152 0.391838,-1.191101 l 1.759591,-0.886723 c 0.437733,-0.222547 0.969853,-0.04503 1.190668,0.392271 0.220814,0.436867 0.04503,0.970719 -0.391838,1.190668 l -1.759158,0.886723 c -0.128592,0.06581 -0.264545,0.09569 -0.398333,0.09569 z m 0,0" />
  <path
     style="stroke-width:0.11084;fill:#ffffff;fill-opacity:1"
     id="path52"
     d="m 30.147711,36.44909 c -0.132056,0 -0.26671,-0.02901 -0.392704,-0.09222 l -1.787734,-0.886723 c -0.439031,-0.217351 -0.618281,-0.749038 -0.400064,-1.18807 0.216485,-0.438165 0.751203,-0.618281 1.188503,-0.400064 l 1.787301,0.886723 c 0.439031,0.217351 0.618281,0.749471 0.400064,1.188503 -0.155003,0.310872 -0.468907,0.491854 -0.795366,0.491854 z m 0,0" />
  <path
     style="stroke-width:0.11084;fill:#ffffff;fill-opacity:1"
     id="path54"
     d="m 30.148577,36.44909 c -0.226011,0 -0.452021,-0.08573 -0.625209,-0.257184 -0.347675,-0.345511 -0.349407,-0.906207 -0.0043,-1.254748 l 1.759158,-1.771714 c 0.347675,-0.346376 0.907072,-0.348108 1.254747,-0.0043 0.347675,0.345943 0.349407,0.906206 0.0043,1.254747 l -1.759158,1.771714 c -0.174487,0.173621 -0.401796,0.261514 -0.629538,0.261514 z m 0,0" />
  <path
     style="stroke-width:0.11084;fill:#ffffff;fill-opacity:1"
     id="path56"
     d="m 27.482347,38.222536 c -0.32646,0 -0.641229,-0.180116 -0.7945,-0.49272 L 25.808051,35.95637 c -0.218217,-0.439032 -0.03897,-0.971152 0.400065,-1.188503 0.436866,-0.219083 0.970719,-0.03983 1.18807,0.400064 l 0.879795,1.773446 c 0.217784,0.439032 0.03897,0.970719 -0.400064,1.18807 -0.126861,0.06408 -0.261514,0.09309 -0.39357,0.09309 z m 0,0" />
  <path
     style="stroke-width:0.11084;fill:#ffffff;fill-opacity:1"
     id="path58"
     d="m 29.260988,38.222536 c -0.132922,0 -0.268874,-0.02988 -0.395302,-0.09309 -0.438165,-0.219083 -0.615683,-0.752069 -0.3966,-1.189802 l 0.886722,-1.773446 c 0.219949,-0.438165 0.75207,-0.613518 1.190235,-0.3966 0.437733,0.219083 0.615251,0.752069 0.396168,1.190235 l -0.886723,1.773445 c -0.155869,0.31044 -0.468906,0.489257 -0.7945,0.489258 z m 0,0" />
  <path
     style="stroke-width:0.11084;fill:#ffffff;fill-opacity:1"
     id="path60"
     d="m 29.261854,38.222536 h -1.780373 c -0.490555,0 -0.886723,-0.396168 -0.886723,-0.886723 0,-0.490122 0.396168,-0.886723 0.886723,-0.886723 h 1.780373 c 0.490555,0 0.886723,0.396601 0.886723,0.886723 0,0.490555 -0.396168,0.886723 -0.886723,0.886723 z m 0,0" />
  <path
     style="stroke-width:0.11084;fill:#ffffff;fill-opacity:1"
     id="path62"
     d="m 26.602551,42.65615 c -0.05672,0 -0.11517,-0.0052 -0.172755,-0.01775 -0.480597,-0.09482 -0.792768,-0.561995 -0.697082,-1.041726 L 26.61251,37.16306 c 0.09395,-0.480597 0.561129,-0.797098 1.041726,-0.697082 0.480597,0.09482 0.792768,0.562428 0.697082,1.042159 l -0.879796,4.433614 c -0.08313,0.422579 -0.453752,0.714401 -0.868971,0.714401 z m 0,0" />
  <path
     style="stroke-width:0.11084;fill:#ffffff;fill-opacity:1"
     id="path64"
     d="m 30.147711,42.65615 c -0.41392,0 -0.784975,-0.290956 -0.868105,-0.712669 l -0.886723,-4.433614 c -0.09569,-0.480597 0.215619,-0.947339 0.69535,-1.043891 0.486658,-0.100882 0.947772,0.215619 1.043458,0.69535 l 0.886723,4.433614 c 0.09569,0.480597 -0.215619,0.946906 -0.69535,1.043458 -0.05932,0.01256 -0.118634,0.01775 -0.175353,0.01775 z m 0,0" />
  <path
     style="stroke-width:0.11084;fill:#ffffff;fill-opacity:1"
     id="path66"
     d="m 28.387687,14.281019 c -0.490555,0 -0.891485,-0.396168 -0.891485,-0.886723 0,-0.490122 0.392271,-0.886723 0.881527,-0.886723 h 0.01 c 0.489257,0 0.886723,0.396601 0.886723,0.886723 0,0.490555 -0.397466,0.886723 -0.886723,0.886723 z m 0,0" />
  <path
     style="stroke-width:0.11084;fill:#ffffff;fill-opacity:1"
     id="path68"
     d="m 39.88824,28.465121 c -0.490122,0 -0.886723,-0.396168 -0.886723,-0.886723 0,-1.956159 1.590733,-3.546892 3.546892,-3.546892 0.490555,0 0.886723,0.396168 0.886723,0.886723 0,0.490555 -0.396168,0.886723 -0.886723,0.886723 -0.97808,0 -1.773446,0.795366 -1.773446,1.773446 0,0.490555 -0.396168,0.886723 -0.886723,0.886723 z m 0,0" />
  <path
     style="stroke-width:0.11084;fill:#ffffff;fill-opacity:1"
     id="path70"
     d="m 45.208577,25.810148 h -2.660168 c -0.490122,0 -0.886723,-0.396168 -0.886723,-0.886723 0,-0.490122 0.396601,-0.886723 0.886723,-0.886723 h 2.660168 c 0.490555,0 0.886723,0.396601 0.886723,0.886723 0,0.490555 -0.396168,0.886723 -0.886723,0.886723 z m 0,0" />
  <path
     style="stroke-width:0.11084;fill:#ffffff;fill-opacity:1"
     id="path72"
     d="m 39.88824,32.90393 c -0.490122,0 -0.886723,-0.396167 -0.886723,-0.886722 v -4.43881 c 0,-0.490555 0.396601,-0.886723 0.886723,-0.886723 0.490555,0 0.886723,0.396168 0.886723,0.886723 v 4.43881 c 0,0.490555 -0.396168,0.886722 -0.886723,0.886722 z m 0,0" />
  <path
     style="stroke-width:0.11084;fill:#ffffff;fill-opacity:1"
     id="path74"
     d="m 55.849251,28.465121 c -0.490122,0 -0.886722,-0.396168 -0.886722,-0.886723 0,-0.97808 -0.795367,-1.773446 -1.773446,-1.773446 -0.490122,0 -0.886723,-0.396168 -0.886723,-0.886723 0,-0.490555 0.396601,-0.886723 0.886723,-0.886723 1.956159,0 3.546891,1.590733 3.546891,3.546892 0,0.490555 -0.396167,0.886723 -0.886723,0.886723 z m 0,0" />
  <path
     style="stroke-width:0.11084;fill:#ffffff;fill-opacity:1"
     id="path76"
     d="m 53.189083,25.810148 h -2.660169 c -0.490122,0 -0.886722,-0.396168 -0.886722,-0.886723 0,-0.490122 0.3966,-0.886723 0.886722,-0.886723 h 2.660169 c 0.490555,0 0.886723,0.396601 0.886723,0.886723 0,0.490555 -0.396168,0.886723 -0.886723,0.886723 z m 0,0" />
  <path
     style="stroke-width:0.11084;fill:#ffffff;fill-opacity:1"
     id="path78"
     d="m 55.849251,32.90393 c -0.490122,0 -0.886722,-0.396167 -0.886722,-0.886722 v -4.43881 c 0,-0.490555 0.3966,-0.886723 0.886722,-0.886723 0.490556,0 0.886723,0.396168 0.886723,0.886723 v 4.43881 c 0,0.490555 -0.396167,0.886722 -0.886723,0.886722 z m 0,0" />
  <path
     style="stroke-width:0.11084;fill:#ffffff;fill-opacity:1"
     id="path80"
     d="m 45.208577,25.811013 c -0.490122,0 -0.886723,-0.396167 -0.886723,-0.886722 v -2.380903 c 0,-0.490122 0.396601,-0.886723 0.886723,-0.886723 0.490555,0 0.886723,0.396601 0.886723,0.886723 v 2.380903 c 0,0.490555 -0.396168,0.886722 -0.886723,0.886722 z m 0,0" />
  <path
     style="stroke-width:0.11084;fill:#ffffff;fill-opacity:1"
     id="path82"
     d="m 50.528914,25.805818 c -0.490122,0 -0.886722,-0.396168 -0.886722,-0.886723 v -2.375707 c 0,-0.490122 0.3966,-0.886723 0.886722,-0.886723 0.490556,0 0.886723,0.396601 0.886723,0.886723 v 2.375707 c 0,0.490555 -0.396167,0.886723 -0.886723,0.886723 z m 0,0" />
  <path
     style="stroke-width:0.11084;fill:#ffffff;fill-opacity:1"
     id="path84"
     d="m 54.075806,17.824446 c -0.490122,0 -0.886723,-0.396167 -0.886723,-0.886723 V 13.39343 c 0,-0.490122 0.396601,-0.886723 0.886723,-0.886723 0.490555,0 0.886723,0.396601 0.886723,0.886723 v 3.544293 c 0,0.490556 -0.396168,0.886723 -0.886723,0.886723 z m 0,0" />
  <path
     style="stroke-width:0.11084;fill:#ffffff;fill-opacity:1"
     id="path86"
     d="m 41.661686,17.824446 c -0.490122,0 -0.886723,-0.396167 -0.886723,-0.886723 V 13.39343 c 0,-0.490122 0.396601,-0.886723 0.886723,-0.886723 0.490555,0 0.886723,0.396601 0.886723,0.886723 v 3.544293 c 0,0.490556 -0.396168,0.886723 -0.886723,0.886723 z m 0,0" />
  <path
     style="stroke-width:0.11084;fill:#ffffff;fill-opacity:1"
     id="path88"
     d="m 47.870478,24.025445 c -3.91102,0 -7.093783,-3.180599 -7.093783,-7.090319 0,-0.490556 0.396601,-0.886723 0.886723,-0.886723 0.490555,0 0.886723,0.396167 0.886723,0.886723 0,2.932506 2.386098,5.316873 5.320337,5.316873 2.934238,0 5.320337,-2.384367 5.320337,-5.316873 0,-0.490556 0.3966,-0.886723 0.886723,-0.886723 0.490555,0 0.886722,0.396167 0.886722,0.886723 0,3.90972 -3.18233,7.090319 -7.093782,7.090319 z m 0,0" />
  <path
     style="stroke-width:0.11084;fill:#ffffff;fill-opacity:1"
     id="path90"
     d="M 55.849251,32.90393 H 39.88824 c -0.490122,0 -0.886723,-0.396167 -0.886723,-0.886722 0,-0.490123 0.396601,-0.886723 0.886723,-0.886723 h 15.961011 c 0.490556,0 0.886723,0.3966 0.886723,0.886723 0,0.490555 -0.396167,0.886722 -0.886723,0.886722 z m 0,0" />
  <path
     style="stroke-width:0.11084;fill:#ffffff;fill-opacity:1"
     id="path92"
     d="m 44.336142,16.941187 c -0.22601,0 -0.453319,-0.08573 -0.625208,-0.25805 l -2.674457,-2.661034 c -0.347242,-0.345944 -0.349407,-0.906207 -0.0035,-1.253882 0.345943,-0.346376 0.907939,-0.349407 1.253882,-0.0035 l 2.674456,2.661035 c 0.347675,0.345943 0.349407,0.906206 0.0035,1.253881 -0.173621,0.173621 -0.40093,0.261514 -0.628673,0.261514 z m 0,0" />
  <path
     style="stroke-width:0.11084;fill:#ffffff;fill-opacity:1"
     id="path94"
     d="m 51.429925,16.941187 h -7.093783 c -0.490555,0 -0.886722,-0.396167 -0.886722,-0.886723 0,-0.490122 0.396167,-0.886722 0.886722,-0.886722 h 7.093783 c 0.490555,0 0.886723,0.3966 0.886723,0.886722 0,0.490556 -0.396168,0.886723 -0.886723,0.886723 z m 0,0" />
  <path
     style="stroke-width:0.11084;fill:#ffffff;fill-opacity:1"
     id="path96"
     d="m 51.429925,16.941187 c -0.22601,0 -0.452021,-0.08573 -0.625209,-0.25805 -0.347675,-0.34551 -0.349407,-0.906206 -0.0035,-1.253881 l 2.64588,-2.661035 c 0.345943,-0.346376 0.906207,-0.349407 1.253882,-0.0035 0.347675,0.345943 0.349406,0.906207 0.0035,1.253882 l -2.64588,2.661034 c -0.173621,0.173621 -0.40093,0.261514 -0.628673,0.261514 z m 0,0" />
  <path
     style="stroke-width:0.11084;fill:#ffffff;fill-opacity:1"
     id="path98"
     d="m 54.075806,14.280153 h -12.41412 c -0.490122,0 -0.886723,-0.396168 -0.886723,-0.886723 0,-0.490122 0.396601,-0.886723 0.886723,-0.886723 h 12.41412 c 0.490555,0 0.886723,0.396601 0.886723,0.886723 0,0.490555 -0.396168,0.886723 -0.886723,0.886723 z m 0,0" />
  <path
     style="stroke-width:0.11084;fill:#ffffff;fill-opacity:1"
     id="path100"
     d="m 41.66082,14.280153 c -0.3979,0 -0.759863,-0.270174 -0.859879,-0.674568 L 39.928073,10.05956 c -0.116902,-0.4754005 0.173189,-0.9559975 0.648157,-1.0728995 0.474535,-0.119933 0.955998,0.172755 1.073333,0.648156 l 0.872434,3.5460255 c 0.116902,0.474968 -0.173188,0.955565 -0.648156,1.0729 -0.07101,0.01862 -0.14288,0.02641 -0.213021,0.02641 z m 0,0" />
  <path
     style="stroke-width:0.11084;fill:#ffffff;fill-opacity:1"
     id="path102"
     d="m 40.789251,10.734127 c -0.358066,0 -0.697082,-0.219083 -0.83087,-0.574551 -0.171023,-0.4593805 0.06018,-0.9698525 0.518699,-1.1421745 l 7.093782,-2.660169 c 0.45765,-0.170157 0.971152,0.05975 1.142176,0.518698 0.171023,0.459382 -0.06018,0.970287 -0.518699,1.142176 l -7.093782,2.6601675 c -0.103047,0.03724 -0.207393,0.05585 -0.311306,0.05585 z m 0,0" />
  <path
     style="stroke-width:0.11084;fill:#ffffff;fill-opacity:1"
     id="path104"
     d="m 54.104382,14.279287 c -0.07014,0 -0.142014,-0.0078 -0.213022,-0.02554 -0.474968,-0.117335 -0.765058,-0.597932 -0.648156,-1.0729 l 0.872435,-3.5460255 c 0.117335,-0.475401 0.60053,-0.769821 1.0729,-0.648156 0.475401,0.116902 0.765491,0.597499 0.648589,1.0728995 L 54.96426,13.60559 c -0.09915,0.403096 -0.461113,0.673702 -0.859878,0.673702 z m 0,0" />
  <path
     style="stroke-width:0.11084;fill:#ffffff;fill-opacity:1"
     id="path106"
     d="m 54.976817,10.733261 c -0.103913,0 -0.208259,-0.01862 -0.312172,-0.05585 L 47.570862,8.0172435 c -0.458515,-0.171889 -0.689721,-0.68366 -0.518698,-1.142176 0.171023,-0.460247 0.68366,-0.687989 1.142175,-0.518698 l 7.093783,2.660169 c 0.458515,0.172322 0.689722,0.68366 0.518698,1.1421745 -0.132922,0.355468 -0.471937,0.574551 -0.830003,0.574551 z m 0,0" />
  <path
     style="stroke-width:0.11084;fill:#ffffff;fill-opacity:1"
     id="path108"
     d="m 46.109588,27.581861 c -0.323862,0 -0.634734,-0.177084 -0.791902,-0.484926 l -0.900145,-1.771714 c -0.221681,-0.4373 -0.04763,-0.970719 0.388374,-1.1924 0.438166,-0.22168 0.971152,-0.04806 1.192833,0.388375 l 0.900145,1.77128 c 0.22168,0.4373 0.04763,0.971152 -0.388374,1.192833 -0.129459,0.06581 -0.266277,0.09655 -0.400931,0.09655 z m 0,0" />
  <path
     style="stroke-width:0.11084;fill:#ffffff;fill-opacity:1"
     id="path110"
     d="m 46.109588,27.581861 c -0.325593,0 -0.639497,-0.178816 -0.7945,-0.490988 -0.219083,-0.438166 -0.0407,-0.971152 0.397033,-1.189369 l 1.774745,-0.885857 c 0.437733,-0.216918 0.970719,-0.0407 1.188936,0.397467 0.219083,0.438166 0.0407,0.970719 -0.397466,1.188936 l -1.774312,0.885857 c -0.125561,0.06408 -0.26238,0.09395 -0.394436,0.09395 z m 0,0" />
  <path
     style="stroke-width:0.11084;fill:#ffffff;fill-opacity:1"
     id="path112"
     d="m 49.65648,27.581861 c -0.132922,0 -0.268875,-0.02987 -0.394436,-0.09309 l -1.774312,-0.885857 c -0.438166,-0.218217 -0.616549,-0.75077 -0.397467,-1.188936 0.218217,-0.439898 0.754667,-0.614385 1.188937,-0.397467 l 1.774744,0.885857 c 0.437733,0.218217 0.616117,0.751203 0.397034,1.189369 -0.155004,0.311306 -0.468907,0.490122 -0.7945,0.490122 z m 0,0" />
  <path
     style="stroke-width:0.11084;fill:#ffffff;fill-opacity:1"
     id="path114"
     d="m 49.65648,27.581861 c -0.13119,0 -0.264978,-0.02901 -0.390107,-0.09136 -0.439897,-0.216052 -0.620013,-0.748173 -0.404394,-1.187204 l 0.871569,-1.771714 c 0.216485,-0.439898 0.750337,-0.617849 1.187204,-0.404394 0.439898,0.216485 0.620014,0.748605 0.404394,1.187204 l -0.871568,1.771714 c -0.155004,0.313903 -0.469773,0.49575 -0.797098,0.49575 z m 0,0" />
  <path
     style="stroke-width:0.11084;fill:#ffffff;fill-opacity:1"
     id="path116"
     d="M 0.88672285,28.465121 C 0.39616771,28.465121 0,28.068953 0,27.578398 c 0,-1.956159 1.5907322,-3.546892 3.5468914,-3.546892 0.4905551,0 0.8867228,0.396168 0.8867228,0.886723 0,0.490555 -0.3961677,0.886723 -0.8867228,0.886723 -0.9780796,0 -1.7734457,0.795366 -1.7734457,1.773446 0,0.490555 -0.3961677,0.886723 -0.88672285,0.886723 z m 0,0" />
  <path
     style="stroke-width:0.11084;fill:#ffffff;fill-opacity:1"
     id="path118"
     d="M 6.2070599,25.810148 H 3.5468914 c -0.4905551,0 -0.8867229,-0.396168 -0.8867229,-0.886723 0,-0.490122 0.3961678,-0.886723 0.8867229,-0.886723 h 2.6601685 c 0.4905552,0 0.8867229,0.396601 0.8867229,0.886723 0,0.490555 -0.3961677,0.886723 -0.8867229,0.886723 z m 0,0" />
  <path
     style="stroke-width:0.11084;fill:#ffffff;fill-opacity:1"
     id="path120"
     d="M 0.88672285,32.90393 C 0.39616771,32.90393 0,32.507763 0,32.017208 v -4.43881 c 0,-0.490555 0.39616771,-0.886723 0.88672285,-0.886723 0.49055515,0 0.88672285,0.396168 0.88672285,0.886723 v 4.43881 c 0,0.490555 -0.3961677,0.886722 -0.88672285,0.886722 z m 0,0" />
  <path
     style="stroke-width:0.11084;fill:#ffffff;fill-opacity:1"
     id="path122"
     d="m 16.847734,28.465121 c -0.490555,0 -0.886723,-0.396168 -0.886723,-0.886723 0,-0.97808 -0.795366,-1.773446 -1.773445,-1.773446 -0.490556,0 -0.886723,-0.396168 -0.886723,-0.886723 0,-0.490555 0.396167,-0.886723 0.886723,-0.886723 1.956159,0 3.546891,1.590733 3.546891,3.546892 0,0.490555 -0.396168,0.886723 -0.886723,0.886723 z m 0,0" />
  <path
     style="stroke-width:0.11084;fill:#ffffff;fill-opacity:1"
     id="path124"
     d="m 14.187566,25.810148 h -2.660169 c -0.490555,0 -0.886723,-0.396168 -0.886723,-0.886723 0,-0.490122 0.396168,-0.886723 0.886723,-0.886723 h 2.660169 c 0.490555,0 0.886722,0.396601 0.886722,0.886723 0,0.490555 -0.396167,0.886723 -0.886722,0.886723 z m 0,0" />
  <path
     style="stroke-width:0.11084;fill:#ffffff;fill-opacity:1"
     id="path126"
     d="m 16.847734,32.90393 c -0.490555,0 -0.886723,-0.396167 -0.886723,-0.886722 v -4.43881 c 0,-0.490555 0.396168,-0.886723 0.886723,-0.886723 0.490555,0 0.886723,0.396168 0.886723,0.886723 v 4.43881 c 0,0.490555 -0.396168,0.886722 -0.886723,0.886722 z m 0,0" />
  <path
     style="stroke-width:0.11084;fill:#ffffff;fill-opacity:1"
     id="path128"
     d="m 6.2070599,25.811013 c -0.4905551,0 -0.8867228,-0.396167 -0.8867228,-0.886722 v -2.380903 c 0,-0.490122 0.3961677,-0.886723 0.8867228,-0.886723 0.4905552,0 0.8867229,0.396601 0.8867229,0.886723 v 2.380903 c 0,0.490555 -0.3961677,0.886722 -0.8867229,0.886722 z m 0,0" />
  <path
     style="stroke-width:0.11084;fill:#ffffff;fill-opacity:1"
     id="path130"
     d="m 11.527397,25.805818 c -0.490555,0 -0.886723,-0.396168 -0.886723,-0.886723 v -2.375707 c 0,-0.490122 0.396168,-0.886723 0.886723,-0.886723 0.490555,0 0.886723,0.396601 0.886723,0.886723 v 2.375707 c 0,0.490555 -0.396168,0.886723 -0.886723,0.886723 z m 0,0" />
  <path
     style="stroke-width:0.11084;fill:#ffffff;fill-opacity:1"
     id="path132"
     d="m 15.074288,17.824446 c -0.490555,0 -0.886722,-0.396167 -0.886722,-0.886723 V 13.39343 c 0,-0.490122 0.396167,-0.886723 0.886722,-0.886723 0.490556,0 0.886723,0.396601 0.886723,0.886723 v 3.544293 c 0,0.490556 -0.396167,0.886723 -0.886723,0.886723 z m 0,0" />
  <path
     style="stroke-width:0.11084;fill:#ffffff;fill-opacity:1"
     id="path134"
     d="m 2.6601685,17.824446 c -0.4905551,0 -0.8867228,-0.396167 -0.8867228,-0.886723 V 13.39343 c 0,-0.490122 0.3961677,-0.886723 0.8867228,-0.886723 0.4905552,0 0.8867229,0.396601 0.8867229,0.886723 v 3.544293 c 0,0.490556 -0.3961677,0.886723 -0.8867229,0.886723 z m 0,0" />
  <path
     style="stroke-width:0.11084;fill:#ffffff;fill-opacity:1"
     id="path136"
     d="m 8.8689604,24.025445 c -3.9114523,0 -7.0937828,-3.180599 -7.0937828,-7.090319 0,-0.490556 0.3966006,-0.886723 0.8867228,-0.886723 0.4905552,0 0.8867229,0.396167 0.8867229,0.886723 0,2.932506 2.3860984,5.316873 5.3203371,5.316873 2.9342386,0 5.3203366,-2.384367 5.3203366,-5.316873 0,-0.490556 0.396601,-0.886723 0.886723,-0.886723 0.490555,0 0.886723,0.396167 0.886723,0.886723 0,3.90972 -3.18233,7.090319 -7.0937826,7.090319 z m 0,0" />
  <path
     style="stroke-width:0.11084;fill:#ffffff;fill-opacity:1"
     id="path138"
     d="M 16.847734,32.90393 H 0.88672285 C 0.39616771,32.90393 0,32.507763 0,32.017208 0,31.527085 0.39616771,31.130485 0.88672285,31.130485 H 16.847734 c 0.490555,0 0.886723,0.3966 0.886723,0.886723 0,0.490555 -0.396168,0.886722 -0.886723,0.886722 z m 0,0" />
  <path
     style="stroke-width:0.11084;fill:#ffffff;fill-opacity:1"
     id="path140"
     d="m 5.3337592,16.941187 c -0.2264434,0 -0.4533198,-0.08573 -0.6252089,-0.25805 L 2.0340937,14.022103 c -0.347675,-0.345944 -0.3494069,-0.906207 -0.00346,-1.253882 0.3459432,-0.346376 0.9079385,-0.349407 1.2538815,-0.0035 l 2.6744567,2.661035 c 0.347242,0.345943 0.3489739,0.906206 0.00346,1.253881 -0.173188,0.173621 -0.4009304,0.261514 -0.6286726,0.261514 z m 0,0" />
  <path
     style="stroke-width:0.11084;fill:#ffffff;fill-opacity:1"
     id="path142"
     d="M 12.427542,16.941187 H 5.3337592 c -0.4905553,0 -0.8867229,-0.396167 -0.8867229,-0.886723 0,-0.490122 0.3961676,-0.886722 0.8867229,-0.886722 h 7.0937828 c 0.490122,0 0.886723,0.3966 0.886723,0.886722 0,0.490556 -0.396601,0.886723 -0.886723,0.886723 z m 0,0" />
  <path
     style="stroke-width:0.11084;fill:#ffffff;fill-opacity:1"
     id="path144"
     d="m 12.427542,16.941187 c -0.226443,0 -0.452454,-0.08573 -0.625209,-0.25805 -0.347675,-0.34551 -0.349407,-0.906206 -0.0035,-1.253881 l 2.645881,-2.661035 c 0.345943,-0.346376 0.906206,-0.349407 1.253881,-0.0035 0.347675,0.345943 0.349407,0.906207 0.0035,1.253882 l -2.64588,2.661034 c -0.173188,0.173621 -0.400931,0.261514 -0.628673,0.261514 z m 0,0" />
  <path
     style="stroke-width:0.11084;fill:#ffffff;fill-opacity:1"
     id="path146"
     d="M 15.074288,14.280153 H 2.6601685 c -0.4905551,0 -0.8867228,-0.396168 -0.8867228,-0.886723 0,-0.490122 0.3961677,-0.886723 0.8867228,-0.886723 H 15.074288 c 0.490556,0 0.886723,0.396601 0.886723,0.886723 0,0.490555 -0.396167,0.886723 -0.886723,0.886723 z m 0,0" />
  <path
     style="stroke-width:0.11084;fill:#ffffff;fill-opacity:1"
     id="path148"
     d="m 2.6593027,14.280153 c -0.3983326,0 -0.7598627,-0.270174 -0.8603117,-0.674568 L 0.9265561,10.05956 C 0.80965422,9.5841595 1.0997442,9.1035625 1.5747124,8.9866605 c 0.4745352,-0.119933 0.955998,0.172755 1.0729,0.648156 l 0.8728678,3.5460255 c 0.1169019,0.474968 -0.173188,0.955565 -0.6485893,1.0729 -0.070574,0.01862 -0.1424471,0.02641 -0.2125882,0.02641 z m 0,0" />
  <path
     style="stroke-width:0.11084;fill:#ffffff;fill-opacity:1"
     id="path150"
     d="m 1.7868678,10.734127 c -0.3584993,0 -0.697082,-0.219083 -0.83086973,-0.574551 C 0.7845419,9.7001955 1.0161809,9.1897235 1.4746964,9.0174015 l 7.0937827,-2.660169 c 0.4593813,-0.170157 0.970719,0.05975 1.1421752,0.518698 0.1710233,0.459382 -0.060616,0.970287 -0.5186982,1.142176 L 2.0981734,10.678274 c -0.1021811,0.03724 -0.2069598,0.05585 -0.3113056,0.05585 z m 0,0" />
  <path
     style="stroke-width:0.11084;fill:#ffffff;fill-opacity:1"
     id="path152"
     d="m 15.102864,14.279287 c -0.07014,0 -0.142014,-0.0078 -0.213021,-0.02554 -0.475401,-0.117335 -0.765058,-0.597932 -0.648156,-1.0729 l 0.872435,-3.5460255 c 0.1182,-0.475401 0.600529,-0.769821 1.0729,-0.648156 0.475401,0.116902 0.765491,0.597499 0.648156,1.0728995 l -0.872435,3.546025 c -0.100016,0.403096 -0.461979,0.673702 -0.859879,0.673702 z m 0,0" />
  <path
     style="stroke-width:0.11084;fill:#ffffff;fill-opacity:1"
     id="path154"
     d="m 15.974433,10.733261 c -0.103912,0 -0.208691,-0.01862 -0.312171,-0.05585 L 8.5684791,8.0172405 C 8.1099637,7.8453515 7.8783247,7.3335805 8.0497809,6.8750645 8.2208041,6.4148175 8.7325747,6.1870755 9.1919561,6.3563665 l 7.0937829,2.660169 c 0.458082,0.172322 0.689721,0.68366 0.518698,1.1421745 -0.132489,0.355468 -0.471071,0.574551 -0.830004,0.574551 z m 0,0" />
  <path
     style="stroke-width:0.11084;fill:#ffffff;fill-opacity:1"
     id="path156"
     d="m 7.1072049,27.581861 c -0.3238617,0 -0.6351672,-0.177084 -0.7919025,-0.484926 L 5.4151576,25.325221 c -0.2216807,-0.4373 -0.047627,-0.970719 0.3883742,-1.1924 0.4372999,-0.22168 0.971152,-0.04806 1.1928327,0.388375 l 0.8997119,1.77128 c 0.2216807,0.4373 0.04806,0.971152 -0.3883742,1.192833 -0.1285921,0.06581 -0.2649777,0.09655 -0.4004973,0.09655 z m 0,0" />
  <path
     style="stroke-width:0.11084;fill:#ffffff;fill-opacity:1"
     id="path158"
     d="m 7.1072049,27.581861 c -0.3255936,0 -0.639497,-0.178816 -0.7945002,-0.490988 -0.219083,-0.438166 -0.040699,-0.971152 0.3970335,-1.189369 l 1.7743117,-0.885857 c 0.4381658,-0.216918 0.972018,-0.0407 1.189369,0.397467 0.2186499,0.438166 0.040699,0.970719 -0.3974666,1.188936 l -1.7743116,0.885857 c -0.1259943,0.06408 -0.2615141,0.09395 -0.3944358,0.09395 z m 0,0" />
  <path
     style="stroke-width:0.11084;fill:#ffffff;fill-opacity:1"
     id="path160"
     d="m 10.654096,27.581861 c -0.132922,0 -0.268874,-0.02987 -0.394868,-0.09309 L 8.4849158,26.602916 C 8.047183,26.384699 7.8687994,25.852146 8.0878822,25.41398 c 0.218217,-0.439898 0.754667,-0.614385 1.188936,-0.397467 L 11.05113,25.90237 c 0.438166,0.218217 0.616549,0.751203 0.397466,1.189369 -0.155436,0.311306 -0.468473,0.490122 -0.7945,0.490122 z m 0,0" />
  <path
     style="stroke-width:0.11084;fill:#ffffff;fill-opacity:1"
     id="path162"
     d="m 10.654096,27.581861 c -0.13119,0 -0.26541,-0.02901 -0.390106,-0.09136 -0.4398976,-0.216048 -0.6200131,-0.748169 -0.404394,-1.1872 l 0.871569,-1.771714 c 0.216485,-0.439898 0.751203,-0.617849 1.187204,-0.404394 0.439898,0.216485 0.620013,0.748605 0.404394,1.187204 l -0.871569,1.771714 c -0.154137,0.313903 -0.469339,0.49575 -0.797098,0.49575 z m 0,0" />
  <path
     style="stroke-width:0.11084;fill:#ffffff;fill-opacity:1"
     id="path164"
     d="m 26.599954,-7.8887839 c -1.465604,0 -2.659303,-1.1932657 -2.659303,-2.6601681 0,-0.490123 0.396168,-0.886723 0.886723,-0.886723 0.490122,0 0.886723,0.3966 0.886723,0.886723 0,0.489689 0.397033,0.8867224 0.885857,0.8867224 0.489256,0 0.887588,-0.3970334 0.887588,-0.8867224 0,-0.490123 0.396168,-0.886723 0.886723,-0.886723 0.490122,0 0.886723,0.3966 0.886723,0.886723 0,1.4669024 -1.194565,2.6601681 -2.661034,2.6601681 z m 0,0" />
  <path
     style="stroke-width:0.11084;fill:#ffffff;fill-opacity:1"
     id="path166"
     d="m 30.147711,-7.8887839 c -1.46647,0 -2.660169,-1.1932657 -2.660169,-2.6601681 0,-0.490123 0.396168,-0.886723 0.886723,-0.886723 0.490122,0 0.886723,0.3966 0.886723,0.886723 0,0.489689 0.397034,0.8867224 0.886723,0.8867224 0.489256,0 0.886723,-0.3970334 0.886723,-0.8867224 0,-0.490123 0.396167,-0.886723 0.886723,-0.886723 0.490122,0 0.886723,0.3966 0.886723,0.886723 0,1.4669024 -1.193699,2.6601681 -2.660169,2.6601681 z m 0,0" />
  <path
     style="stroke-width:0.11084;fill:#ffffff;fill-opacity:1"
     id="path168"
     d="m 34.581325,-7.0020611 c -0.226876,0 -0.454186,-0.087027 -0.626941,-0.259782 l -2.660168,-2.6601686 c -0.346809,-0.3468093 -0.346809,-0.9070723 0,-1.2538813 0.346809,-0.346809 0.907072,-0.346809 1.253881,0 l 2.660169,2.6601683 c 0.346809,0.3468091 0.346809,0.9070725 0,1.2538816 -0.172755,0.1727551 -0.400065,0.259782 -0.626941,0.259782 z m 0,0" />
  <path
     style="stroke-width:0.11084;fill:#ffffff;fill-opacity:1"
     id="path170"
     d="m 22.167205,-7.0020611 c -0.226876,0 -0.454185,-0.087027 -0.62694,-0.259782 -0.34681,-0.3468091 -0.34681,-0.9070725 0,-1.2538816 l 2.660168,-2.6601683 c 0.346809,-0.346809 0.907072,-0.346809 1.253882,0 0.346809,0.346809 0.346809,0.907072 0,1.2538813 l -2.660169,2.6601686 c -0.172755,0.1727551 -0.400064,0.259782 -0.626941,0.259782 z m 0,0" />
  <path
     style="stroke-width:0.11084;fill:#ffffff;fill-opacity:1"
     id="path172"
     d="m 33.018736,-5.4485642 c -0.227742,0 -0.455485,-0.087893 -0.628673,-0.261514 -0.34551,-0.347675 -0.343778,-0.9079383 0.0039,-1.2538815 l 1.562153,-1.5534968 c 0.347675,-0.3468091 0.907939,-0.3442113 1.253882,0.00346 0.345943,0.3476751 0.344211,0.9079384 -0.0035,1.2538815 l -1.562553,1.5535006 c -0.172755,0.1723222 -0.398766,0.2580502 -0.625209,0.2580502 z m 0,0" />
  <path
     style="stroke-width:0.11084;fill:#ffffff;fill-opacity:1"
     id="path174"
     d="m 28.374265,6.2987815 c -0.490555,0 -0.886723,-0.396168 -0.886723,-0.886723 0,-1.46647 1.193699,-2.660168 2.660169,-2.660168 0.490122,0 0.886723,0.3966 0.886723,0.886723 0,0.490555 -0.396601,0.886722 -0.886723,0.886722 -0.489689,0 -0.886723,0.397467 -0.886723,0.886723 0,0.490555 -0.396601,0.886723 -0.886723,0.886723 z m 0,0" />
  <path
     style="stroke-width:0.11084;fill:#ffffff;fill-opacity:1"
     id="path176"
     d="m 28.374265,6.2987815 c -0.490555,0 -0.886723,-0.396168 -0.886723,-0.886723 0,-0.489256 -0.397466,-0.886723 -0.886722,-0.886723 -0.490556,0 -0.886723,-0.396167 -0.886723,-0.886722 0,-0.490123 0.396167,-0.886723 0.886723,-0.886723 1.466469,0 2.660168,1.193698 2.660168,2.660168 0,0.490555 -0.396601,0.886723 -0.886723,0.886723 z m 0,0" />
  <path
     style="stroke-width:0.11084;fill:#ffffff;fill-opacity:1"
     id="path178"
     d="m 30.153772,4.5049865 c -0.490122,0 -0.886722,-0.396168 -0.886722,-0.886723 0,-0.490555 0.3966,-0.886723 0.886722,-0.886723 2.439354,0 4.423223,-1.983436 4.423223,-4.42279 0,-1.1820083 -0.461113,-2.2921437 -1.296312,-3.1269102 -0.347675,-0.3463761 -0.347675,-0.9070724 -0.0022,-1.2538815 0.346809,-0.348108 0.909237,-0.3463761 1.253881,-0.00173 1.172484,1.1698854 1.818042,2.72598 1.818042,4.3825237 0,3.416568 -2.780101,6.196236 -6.196669,6.196236 z m 0,0" />
  <path
     style="stroke-width:0.11084;fill:#ffffff;fill-opacity:1"
     id="path180"
     d="m 23.731526,-5.4485642 c -0.226443,0 -0.452453,-0.085728 -0.625208,-0.2580502 l -1.56259,-1.5534969 c -0.347675,-0.3459431 -0.349407,-0.9062064 -0.0035,-1.2538815 0.345943,-0.3463761 0.906206,-0.3494069 1.253881,-0.00346 l 1.562156,1.5534968 c 0.347675,0.3459432 0.349407,0.9062065 0.0039,1.2538815 -0.173188,0.173621 -0.40093,0.261514 -0.628673,0.261514 z m 0,0" />
  <path
     style="stroke-width:0.11084;fill:#ffffff;fill-opacity:1"
     id="path182"
     d="m 26.597356,4.5049865 c -3.417434,0 -6.196669,-2.779668 -6.196669,-6.196236 0,-1.6565436 0.645559,-3.2126382 1.818042,-4.3825236 0.344644,-0.3446442 0.907072,-0.3463761 1.253881,0.00173 0.34551,0.3468091 0.34551,0.9075054 -0.0017,1.2538815 -0.835632,0.8347665 -1.296745,1.9449019 -1.296745,3.1269101 0,2.439354 1.983869,4.42279 4.423223,4.42279 0.490122,0 0.886723,0.396168 0.886723,0.886723 0,0.490555 -0.396601,0.886723 -0.886723,0.886723 z m 0,0" />
  <path
     style="stroke-width:0.11084;fill:#ffffff;fill-opacity:1"
     id="path184"
     d="m 33.906325,-4.5601095 c -0.226877,0 -0.453753,-0.086594 -0.626941,-0.259782 l -0.887589,-0.8884548 c -0.346376,-0.346809 -0.346376,-0.9079383 0,-1.2538815 0.346809,-0.3463761 0.907506,-0.3463761 1.253882,0 l 0.887588,0.8884547 c 0.34681,0.3468091 0.34681,0.9083713 0,1.2538816 -0.172755,0.173188 -0.399631,0.259782 -0.62694,0.259782 z m 0,0" />
  <path
     style="stroke-width:0.11084;fill:#ffffff;fill-opacity:1"
     id="path186"
     d="m 22.844804,-4.5601095 c -0.22731,0 -0.454186,-0.086594 -0.626941,-0.259782 -0.346809,-0.3455103 -0.346809,-0.9070725 0,-1.2538816 l 0.887589,-0.8884547 c 0.346809,-0.3463761 0.907072,-0.3463761 1.253881,0 0.346376,0.3459432 0.346376,0.9070725 0,1.2538815 l -0.887589,0.8884548 c -0.174054,0.173188 -0.40093,0.259782 -0.62694,0.259782 z m 0,0" />
  <path
     style="stroke-width:0.11084;fill:#ffffff;fill-opacity:1"
     id="path188"
     d="m 28.371667,0.0917215 c -1.466902,0 -2.660168,-1.193265 -2.660168,-2.6601683 0,-1.4664699 1.193266,-2.6601686 2.660168,-2.6601686 1.46647,0 2.660169,1.1936987 2.660169,2.6601686 0,1.4669033 -1.193699,2.6601683 -2.660169,2.6601683 z m 0,-3.5468912 c -0.489689,0 -0.886722,0.3974667 -0.886722,0.8867229 0,0.4896892 0.397033,0.8867233 0.886722,0.8867233 0.489257,0 0.886723,-0.3970341 0.886723,-0.8867233 0,-0.4892562 -0.397466,-0.8867229 -0.886723,-0.8867229 z m 0,0" />
</svg>
