<?xml version="1.0" encoding="UTF-8" standalone="no"?>
<svg
   xmlns:dc="http://purl.org/dc/elements/1.1/"
   xmlns:cc="http://creativecommons.org/ns#"
   xmlns:rdf="http://www.w3.org/1999/02/22-rdf-syntax-ns#"
   xmlns:svg="http://www.w3.org/2000/svg"
   xmlns="http://www.w3.org/2000/svg"
   height="72"
   width="71.992126"
   xml:space="preserve"
   viewBox="0 0 71.992126 72"
   y="0px"
   x="0px"
   id="Capa_1"
   version="1.1"><metadata
   id="metadata79"><rdf:RDF><cc:Work
       rdf:about=""><dc:format>image/svg+xml</dc:format><dc:type
         rdf:resource="http://purl.org/dc/dcmitype/StillImage" /><dc:title></dc:title></cc:Work></rdf:RDF></metadata><defs
   id="defs77" />
<g
   style="fill:#ffffff;fill-opacity:1"
   transform="matrix(0.140625,0,0,0.140625,-0.00379688,0)"
   id="g6">
	<g
   style="fill:#ffffff;fill-opacity:1"
   id="g4">
		<path
   style="fill:#ffffff;fill-opacity:1"
   id="path2"
   d="m 255.873,0 c -81.115,0 -147.106,65.992 -147.106,147.106 0,33.718 11.669,66.591 32.883,92.706 0.158,0.245 0.328,0.484 0.51,0.716 l 105.83,135.584 c 1.895,2.428 4.803,3.847 7.883,3.847 3.08,0 5.987,-1.42 7.882,-3.849 L 370.093,239.813 c 0.037,-0.048 0.073,-0.095 0.109,-0.143 21.137,-26.082 32.775,-58.939 32.775,-92.564 C 402.979,65.992 336.988,0 255.873,0 Z m 98.578,227.344 c -0.127,0.156 -0.247,0.313 -0.363,0.474 l -98.217,125.889 -97.226,-124.56 c -0.242,-0.395 -0.514,-0.776 -0.814,-1.14 -18.744,-22.687 -29.066,-51.418 -29.066,-80.901 0,-70.087 57.021,-127.108 127.108,-127.108 70.087,0 127.108,57.021 127.109,127.108 0,29.168 -10.133,57.664 -28.531,80.238 z" />
	</g>
</g>
<g
   style="fill:#ffffff;fill-opacity:1"
   transform="matrix(0.140625,0,0,0.140625,-0.00379688,0)"
   id="g12">
	<g
   style="fill:#ffffff;fill-opacity:1"
   id="g10">
		<path
   style="fill:#ffffff;fill-opacity:1"
   id="path8"
   d="m 342.179,123.759 c -1.563,-5.297 -7.124,-8.323 -12.42,-6.761 -5.297,1.563 -8.324,7.123 -6.761,12.42 7.269,24.641 0.512,51.222 -17.635,69.369 -13.219,13.22 -30.796,20.5 -49.491,20.5 -18.695,0 -36.272,-7.28 -49.492,-20.501 -13.22,-13.22 -20.5,-30.796 -20.5,-49.492 0,-18.696 7.28,-36.273 20.501,-49.492 18.165,-18.166 44.768,-24.917 69.428,-17.617 5.297,1.569 10.859,-1.454 12.426,-6.749 1.568,-5.295 -1.455,-10.859 -6.749,-12.426 -31.696,-9.382 -65.892,-0.702 -89.245,22.651 -16.996,16.997 -26.357,39.596 -26.357,63.633 0,24.037 9.36,46.635 26.357,63.632 16.997,16.997 39.596,26.358 63.633,26.358 24.037,0 46.635,-9.361 63.632,-26.356 23.329,-23.329 32.017,-57.497 22.673,-89.169 z" />
	</g>
</g>
<g
   style="fill:#ffffff;fill-opacity:1"
   transform="matrix(0.140625,0,0,0.140625,-0.00379688,0)"
   id="g18">
	<g
   style="fill:#ffffff;fill-opacity:1"
   id="g16">
		<path
   style="fill:#ffffff;fill-opacity:1"
   id="path14"
   d="m 319.683,85.837 -0.177,-0.178 c -3.906,-3.905 -10.237,-3.905 -14.141,0 -3.905,3.906 -3.905,10.237 0,14.141 l 0.177,0.178 c 1.952,1.953 4.511,2.929 7.07,2.929 2.559,0 5.118,-0.976 7.071,-2.929 3.904,-3.905 3.904,-10.236 0,-14.141 z" />
	</g>
</g>
<g
   style="fill:#ffffff;fill-opacity:1"
   transform="matrix(0.140625,0,0,0.140625,-0.00379688,0)"
   id="g24">
	<g
   style="fill:#ffffff;fill-opacity:1"
   id="g22">
		<path
   style="fill:#ffffff;fill-opacity:1"
   id="path20"
   d="m 409.608,305.305 c -5.245,-1.723 -10.898,1.126 -12.624,6.372 -1.726,5.245 1.127,10.897 6.372,12.624 55.49,18.26 88.617,45.619 88.617,73.184 0,23.308 -24.039,46.892 -65.955,64.702 -45.25,19.227 -105.63,29.816 -170.019,29.816 -64.389,0 -124.769,-10.589 -170.019,-29.816 -41.915,-17.81 -65.955,-41.393 -65.955,-64.702 0,-19.52 16.836,-39.348 47.408,-55.834 32.301,-17.419 78.046,-30.034 128.807,-35.521 5.49,-0.594 9.46,-5.525 8.866,-11.016 -0.594,-5.49 -5.527,-9.464 -11.016,-8.866 -53.273,5.759 -101.625,19.184 -136.15,37.802 -37.887,20.431 -57.913,45.824 -57.913,73.435 0,32.183 27.748,61.698 78.132,83.107 C 125.828,500.845 188.985,512 256,512 c 67.015,0 130.172,-11.155 177.839,-31.408 50.384,-21.409 78.132,-50.923 78.132,-83.107 0,-37.174 -37.309,-70.772 -102.363,-92.18 z" />
	</g>
</g>
<g
   style="fill:#ffffff;fill-opacity:1"
   transform="matrix(0.140625,0,0,0.140625,-0.00379688,0)"
   id="g30">
	<g
   style="fill:#ffffff;fill-opacity:1"
   id="g28">
		<path
   style="fill:#ffffff;fill-opacity:1"
   id="path26"
   d="m 363.857,293.317 -0.348,-0.07 c -5.413,-1.091 -10.687,2.412 -11.779,7.825 -1.091,5.413 2.412,10.687 7.825,11.779 l 0.348,0.07 c 0.668,0.134 1.332,0.199 1.988,0.199 4.661,0 8.833,-3.279 9.791,-8.024 1.091,-5.413 -2.412,-10.687 -7.825,-11.779 z" />
	</g>
</g>
<g
   style="fill:#ffffff;fill-opacity:1"
   transform="matrix(0.140625,0,0,0.140625,-0.00379688,0)"
   id="g36">
	<g
   style="fill:#ffffff;fill-opacity:1"
   id="g34">
		<path
   style="fill:#ffffff;fill-opacity:1"
   id="path32"
   d="m 180.399,337.021 c -1.083,-5.414 -6.35,-8.925 -11.766,-7.844 -0.225,0.045 -0.464,0.101 -0.686,0.162 -5.327,1.453 -8.468,6.949 -7.015,12.277 1.213,4.448 5.243,7.371 9.641,7.371 0.787,0 1.584,-0.093 2.38,-0.288 5.189,-1.255 8.503,-6.396 7.446,-11.678 z" />
	</g>
</g>
<g
   style="fill:#ffffff;fill-opacity:1"
   transform="matrix(0.140625,0,0,0.140625,-0.00379688,0)"
   id="g42">
	<g
   style="fill:#ffffff;fill-opacity:1"
   id="g40">
		<path
   style="fill:#ffffff;fill-opacity:1"
   id="path38"
   d="m 289.363,320.746 c -5.511,-0.425 -10.318,3.683 -10.749,9.188 -0.431,5.505 3.683,10.318 9.188,10.749 65.285,5.11 100.056,24.205 100.056,36.024 0,5.702 -9.09,15.388 -34.709,23.92 -25.802,8.593 -60.303,13.326 -97.149,13.326 -36.846,0 -71.348,-4.732 -97.149,-13.326 -25.619,-8.532 -34.709,-18.218 -34.709,-23.92 0,-5.211 7.067,-11.781 18.904,-17.572 4.96,-2.427 7.013,-8.415 4.586,-13.375 -2.427,-4.96 -8.415,-7.014 -13.376,-4.586 -24.888,12.178 -30.113,26.045 -30.113,35.535 0,37.581 76.393,57.244 151.856,57.244 75.463,0 151.856,-19.663 151.857,-57.245 0.001,-34.46 -63.831,-51.683 -118.493,-55.962 z" />
	</g>
</g>
<g
   transform="translate(-0.02700001)"
   id="g44">
</g>
<g
   transform="translate(-0.02700001)"
   id="g46">
</g>
<g
   transform="translate(-0.02700001)"
   id="g48">
</g>
<g
   transform="translate(-0.02700001)"
   id="g50">
</g>
<g
   transform="translate(-0.02700001)"
   id="g52">
</g>
<g
   transform="translate(-0.02700001)"
   id="g54">
</g>
<g
   transform="translate(-0.02700001)"
   id="g56">
</g>
<g
   transform="translate(-0.02700001)"
   id="g58">
</g>
<g
   transform="translate(-0.02700001)"
   id="g60">
</g>
<g
   transform="translate(-0.02700001)"
   id="g62">
</g>
<g
   transform="translate(-0.02700001)"
   id="g64">
</g>
<g
   transform="translate(-0.02700001)"
   id="g66">
</g>
<g
   transform="translate(-0.02700001)"
   id="g68">
</g>
<g
   transform="translate(-0.02700001)"
   id="g70">
</g>
<g
   transform="translate(-0.02700001)"
   id="g72">
</g>
</svg>
