<?xml version="1.0" encoding="UTF-8" standalone="no"?>
<svg
   xmlns:dc="http://purl.org/dc/elements/1.1/"
   xmlns:cc="http://creativecommons.org/ns#"
   xmlns:rdf="http://www.w3.org/1999/02/22-rdf-syntax-ns#"
   xmlns:svg="http://www.w3.org/2000/svg"
   xmlns="http://www.w3.org/2000/svg"
   id="svg36"
   class=""
   xml:space="preserve"
   viewBox="0 0 512 512"
   y="0"
   x="0"
   height="512"
   width="512"
   version="1.1"><metadata
     id="metadata42"><rdf:RDF><cc:Work
         rdf:about=""><dc:format>image/svg+xml</dc:format><dc:type
           rdf:resource="http://purl.org/dc/dcmitype/StillImage" /><dc:title></dc:title></cc:Work></rdf:RDF></metadata><defs
     id="defs40" /><g
     style="fill:#ffffff;fill-opacity:1"
     id="g34"><g
       style="fill:#ffffff;fill-opacity:1"
       id="g32"><g
         style="fill:#ffffff;fill-opacity:1"
         id="g30"><path
           style="fill:#ffffff;fill-opacity:1"
           id="path2"
           class=""
           data-original="#000000"
           fill="#191919"
           d="M 393.382,269.713 H 221.654 c -4.142,0 -7.5,3.358 -7.5,7.5 0,4.142 3.358,7.5 7.5,7.5 h 171.728 c 4.142,0 7.5,-3.358 7.5,-7.5 0,-4.142 -3.358,-7.5 -7.5,-7.5 z" /><path
           style="fill:#ffffff;fill-opacity:1"
           id="path4"
           class=""
           data-original="#000000"
           fill="#191919"
           d="M 393.382,302.039 H 221.654 c -4.142,0 -7.5,3.358 -7.5,7.5 0,4.142 3.358,7.5 7.5,7.5 h 171.728 c 4.142,0 7.5,-3.358 7.5,-7.5 0,-4.142 -3.358,-7.5 -7.5,-7.5 z" /><path
           style="fill:#ffffff;fill-opacity:1"
           id="path6"
           class=""
           data-original="#000000"
           fill="#191919"
           d="M 393.382,334.364 H 221.654 c -4.142,0 -7.5,3.358 -7.5,7.5 0,4.142 3.358,7.5 7.5,7.5 h 171.728 c 4.142,0 7.5,-3.358 7.5,-7.5 0,-4.142 -3.358,-7.5 -7.5,-7.5 z" /><path
           style="fill:#ffffff;fill-opacity:1"
           id="path8"
           class=""
           data-original="#000000"
           fill="#191919"
           d="M 393.382,366.689 H 221.654 c -4.142,0 -7.5,3.358 -7.5,7.5 0,4.142 3.358,7.5 7.5,7.5 h 171.728 c 4.142,0 7.5,-3.358 7.5,-7.5 0,-4.142 -3.358,-7.5 -7.5,-7.5 z" /><path
           style="fill:#ffffff;fill-opacity:1"
           id="path10"
           class=""
           data-original="#000000"
           fill="#191919"
           d="M 393.382,399.014 H 221.654 c -4.142,0 -7.5,3.358 -7.5,7.5 0,4.142 3.358,7.5 7.5,7.5 h 171.728 c 4.142,0 7.5,-3.358 7.5,-7.5 0,-4.142 -3.358,-7.5 -7.5,-7.5 z" /><path
           style="fill:#ffffff;fill-opacity:1"
           id="path12"
           class=""
           data-original="#000000"
           fill="#191919"
           d="M 393.382,431.339 H 221.654 c -4.142,0 -7.5,3.358 -7.5,7.5 0,4.142 3.358,7.5 7.5,7.5 h 171.728 c 4.142,0 7.5,-3.358 7.5,-7.5 0,-4.142 -3.358,-7.5 -7.5,-7.5 z" /><path
           style="fill:#ffffff;fill-opacity:1"
           id="path14"
           class=""
           data-original="#000000"
           fill="#191919"
           d="m 39.825,478.665 h 353.557 c 4.142,0 7.5,-3.358 7.5,-7.5 0,-4.142 -3.358,-7.5 -7.5,-7.5 H 39.825 c -4.142,0 -7.5,3.358 -7.5,7.5 0,4.142 3.358,7.5 7.5,7.5 z" /><path
           style="fill:#ffffff;fill-opacity:1"
           id="path16"
           class=""
           data-original="#000000"
           fill="#191919"
           d="m 32.325,438.839 c 0,4.142 3.358,7.5 7.5,7.5 h 141.423 c 4.142,0 7.5,-3.358 7.5,-7.5 V 277.213 c 0,-4.142 -3.358,-7.5 -7.5,-7.5 H 39.825 c -4.142,0 -7.5,3.358 -7.5,7.5 z m 15,-154.126 H 173.748 V 431.339 H 47.325 Z" /><path
           style="fill:#ffffff;fill-opacity:1"
           id="path18"
           class=""
           data-original="#000000"
           fill="#191919"
           d="m 400.882,101.445 c 0,-4.142 -3.358,-7.5 -7.5,-7.5 H 39.825 c -4.142,0 -7.5,3.358 -7.5,7.5 v 135.362 c 0,4.142 3.358,7.5 7.5,7.5 h 353.557 c 4.142,0 7.5,-3.358 7.5,-7.5 z m -15,127.862 H 47.325 V 108.945 h 338.557 z" /><path
           style="fill:#ffffff;fill-opacity:1"
           id="path20"
           class=""
           data-original="#000000"
           fill="#191919"
           d="m 69.425,211.982 c 4.142,0 7.5,-3.358 7.5,-7.5 v -46.521 l 34.052,49.31 c 2.257,3.261 6.002,4.653 9.537,3.548 3.621,-1.131 5.961,-4.554 5.96,-8.793 l -0.661,-68.328 c -0.04,-4.118 -3.39,-7.428 -7.498,-7.428 -0.024,0 -0.049,0 -0.074,0 -4.142,0.04 -7.467,3.43 -7.427,7.572 l 0.459,47.461 -35.678,-51.664 c -1.865,-2.701 -5.269,-3.875 -8.403,-2.898 -3.134,0.977 -5.268,3.878 -5.268,7.16 v 70.58 c 10e-4,4.143 3.359,7.501 7.501,7.501 z" /><path
           style="fill:#ffffff;fill-opacity:1"
           id="path22"
           class=""
           data-original="#000000"
           fill="#191919"
           d="m 150.687,211.982 h 29.795 c 4.142,0 7.5,-3.358 7.5,-7.5 0,-4.142 -3.358,-7.5 -7.5,-7.5 h -22.295 v -20.356 h 20.098 c 4.142,0 7.5,-3.358 7.5,-7.5 0,-4.142 -3.358,-7.5 -7.5,-7.5 h -20.098 v -20.355 h 22.295 c 4.142,0 7.5,-3.358 7.5,-7.5 0,-4.142 -3.358,-7.5 -7.5,-7.5 h -29.795 c -4.142,0 -7.5,3.358 -7.5,7.5 v 70.711 c 0,4.142 3.358,7.5 7.5,7.5 z" /><path
           style="fill:#ffffff;fill-opacity:1"
           id="path24"
           class=""
           data-original="#000000"
           fill="#191919"
           d="m 342.505,211.982 c 14.252,0 26.212,-9.045 28.437,-21.507 1.665,-9.326 -2.636,-21.533 -19.701,-27.828 -8.901,-3.283 -17.171,-6.863 -19.478,-7.875 -1.827,-1.396 -2.708,-3.585 -2.369,-5.952 0.216,-1.502 1.287,-5.167 6.563,-6.757 10.692,-3.218 20.457,4.552 20.694,4.745 3.171,2.637 7.879,2.219 10.535,-0.942 2.665,-3.17 2.255,-7.901 -0.916,-10.567 -0.645,-0.542 -16.008,-13.21 -34.64,-7.598 -9.258,2.789 -15.804,10.064 -17.085,18.988 -1.197,8.341 2.417,16.363 9.432,20.936 0.331,0.216 0.679,0.406 1.04,0.566 0.408,0.182 10.106,4.499 21.032,8.529 7.221,2.664 10.912,6.716 10.125,11.118 -0.803,4.495 -6.135,9.144 -13.67,9.144 -7.399,0 -14.534,-2.998 -19.084,-8.019 -2.782,-3.069 -7.524,-3.303 -10.594,-0.521 -3.069,2.782 -3.302,7.524 -0.521,10.594 7.348,8.107 18.637,12.946 30.2,12.946 z" /><path
           style="fill:#ffffff;fill-opacity:1"
           id="path26"
           class=""
           data-original="#000000"
           fill="#191919"
           d="m 219.227,204.875 c 0.071,0.358 0.167,0.71 0.29,1.054 1.288,3.626 4.727,6.052 8.571,6.052 h 0.061 c 3.869,-0.026 7.305,-2.504 8.551,-6.167 0.022,-0.065 0.043,-0.131 0.064,-0.197 l 14.35,-46.362 14.286,46.373 c 0.031,0.102 0.065,0.204 0.101,0.304 1.289,3.625 4.728,6.049 8.571,6.049 h 0.062 c 3.868,-0.026 7.304,-2.505 8.549,-6.167 0.106,-0.311 0.191,-0.629 0.255,-0.951 l 13.832,-69.499 c 0.808,-4.062 -1.83,-8.011 -5.892,-8.82 -4.061,-0.806 -8.011,1.829 -8.82,5.892 l -9.227,46.364 -14.553,-47.238 -0.043,0.013 c -0.731,-2.233 -2.491,-4.092 -4.907,-4.84 -3.957,-1.223 -8.157,0.99 -9.382,4.947 l -14.586,47.123 -9.196,-46.49 c -0.804,-4.064 -4.754,-6.707 -8.812,-5.902 -4.063,0.804 -6.706,4.75 -5.902,8.812 z" /><path
           style="fill:#ffffff;fill-opacity:1"
           id="path28"
           class=""
           data-original="#000000"
           fill="#191919"
           d="M 485.787,0.018 C 485.617,0.011 484.963,0 484.8,0 H 346.59 c -4.142,0 -7.5,3.358 -7.5,7.5 0,4.142 3.358,7.5 7.5,7.5 h 113.903 c -1.85,3.671 -2.893,7.816 -2.893,12.2 v 170.3 c 0,4.142 3.358,7.5 7.5,7.5 4.142,0 7.5,-3.358 7.5,-7.5 V 27.2 c -0.051,-6.594 5.645,-12.292 12.429,-12.212 6.319,0.081 11.966,5.868 11.971,12.682 V 466.6 c 0,16.763 -14.309,30.4 -31.896,30.4 -10e-4,0 -10e-4,0 -0.002,0 -10e-4,0 -10e-4,0 -0.002,0 -17.584,0 -31.89,-13.637 -31.89,-30.4 v -56.63 h 11.69 c 15.274,0 27.7,-12.426 27.7,-27.7 V 232.5 c 0,-4.142 -3.358,-7.5 -7.5,-7.5 -4.142,0 -7.5,3.358 -7.5,7.5 v 149.77 c 0,7.003 -5.697,12.7 -12.7,12.7 H 433.21 V 90.33 c 0,-15.274 -12.431,-27.7 -27.71,-27.7 H 56.42 V 27.2 C 56.42,20.473 61.888,15 68.61,15 h 242.98 c 4.142,0 7.5,-3.358 7.5,-7.5 0,-4.142 -3.358,-7.5 -7.5,-7.5 H 68.61 C 53.617,0 41.42,12.202 41.42,27.2 V 62.63 H 27.7 C 12.426,62.63 0,75.056 0,90.33 v 221.14 c 0,4.142 3.358,7.5 7.5,7.5 4.142,0 7.5,-3.358 7.5,-7.5 V 90.33 c 0,-7.003 5.697,-12.7 12.7,-12.7 h 377.8 c 7.008,0 12.71,5.697 12.71,12.7 V 466.6 c 0,11.681 4.58,22.346 12.093,30.4 H 46.9 C 29.31,497 15,483.363 15,466.6 V 346.47 c 0,-4.142 -3.358,-7.5 -7.5,-7.5 -4.142,0 -7.5,3.358 -7.5,7.5 V 466.6 C 0,491.634 21.039,512 46.9,512 h 418.2 0.002 c 0,0 0.001,0 0.002,0 C 490.962,512 512,491.633 512,466.6 V 27.67 C 512,12.687 500.485,0.54 485.787,0.018 Z" /></g></g></g></svg>
