<?xml version="1.0" encoding="UTF-8" standalone="no"?>
<svg
   xmlns:dc="http://purl.org/dc/elements/1.1/"
   xmlns:cc="http://creativecommons.org/ns#"
   xmlns:rdf="http://www.w3.org/1999/02/22-rdf-syntax-ns#"
   xmlns:svg="http://www.w3.org/2000/svg"
   xmlns="http://www.w3.org/2000/svg"
   version="1.1"
   width="52.457344"
   viewBox="0 0 52.457344 72"
   height="72"
   enable-background="new 0 0 512 512"
   id="Capa_1">
  <metadata
     id="metadata23">
    <rdf:RDF>
      <cc:Work
         rdf:about="">
        <dc:format>image/svg+xml</dc:format>
        <dc:type
           rdf:resource="http://purl.org/dc/dcmitype/StillImage" />
        <dc:title></dc:title>
      </cc:Work>
    </rdf:RDF>
  </metadata>
  <defs
     id="defs21" />
  <g
     style="fill:#ffffff;fill-opacity:1"
     transform="matrix(0.140625,0,0,0.140625,-9.7713281,0)"
     id="g16">
    <path
       style="fill:#ffffff;fill-opacity:1"
       id="path2"
       d="m 435.015,323.621 c -4.142,0 -7.5,3.358 -7.5,7.5 V 494.5 c 0,1.378 -1.121,2.5 -2.5,2.5 H 86.985 c -1.379,0 -2.5,-1.122 -2.5,-2.5 V 216.519 c 0,-4.142 -3.357,-7.5 -7.5,-7.5 -4.143,0 -7.5,3.358 -7.5,7.5 V 494.5 c 0,9.649 7.851,17.5 17.5,17.5 h 338.029 c 9.65,0 17.5,-7.851 17.5,-17.5 V 331.121 c 10e-4,-4.142 -3.357,-7.5 -7.499,-7.5 z" />
    <path
       style="fill:#ffffff;fill-opacity:1"
       id="path4"
       d="m 425.015,45.039 h -77.989 v -4.172 c 0,-9.649 -7.851,-17.5 -17.5,-17.5 H 305.263 V 17.5 c 0,-9.649 -7.851,-17.5 -17.5,-17.5 h -63.525 c -9.649,0 -17.5,7.851 -17.5,17.5 v 5.866 h -24.263 c -9.649,0 -17.5,7.851 -17.5,17.5 v 4.172 h -77.99 c -9.649,0 -17.5,7.851 -17.5,17.5 V 183.63 c 0,4.142 3.357,7.5 7.5,7.5 4.143,0 7.5,-3.358 7.5,-7.5 V 62.539 c 0,-1.378 1.121,-2.5 2.5,-2.5 h 19.945 c -0.118,0.819 -0.2,1.649 -0.2,2.5 v 390.01 c 0,9.65 7.851,17.5 17.5,17.5 h 100.325 c 4.143,0 7.5,-3.358 7.5,-7.5 0,-4.142 -3.357,-7.5 -7.5,-7.5 H 124.23 c -1.379,0 -2.5,-1.122 -2.5,-2.5 V 62.539 c 0,-1.378 1.121,-2.5 2.5,-2.5 h 40.744 v 4.173 c 0,9.649 7.851,17.5 17.5,17.5 h 147.051 c 9.649,0 17.5,-7.851 17.5,-17.5 v -4.173 h 40.744 c 1.379,0 2.5,1.122 2.5,2.5 v 390.01 c 0,1.378 -1.121,2.5 -2.5,2.5 H 257.443 c -4.143,0 -7.5,3.358 -7.5,7.5 0,4.142 3.357,7.5 7.5,7.5 H 387.77 c 9.649,0 17.5,-7.85 17.5,-17.5 V 62.539 c 0,-0.851 -0.082,-1.681 -0.2,-2.5 h 19.945 c 1.379,0 2.5,1.122 2.5,2.5 v 235.695 c 0,4.142 3.358,7.5 7.5,7.5 4.143,0 7.5,-3.358 7.5,-7.5 V 62.539 c 0,-9.65 -7.851,-17.5 -17.5,-17.5 z m -92.99,19.172 c 0,1.378 -1.121,2.5 -2.5,2.5 h -147.05 c -1.379,0 -2.5,-1.122 -2.5,-2.5 V 40.866 c 0,-1.378 1.121,-2.5 2.5,-2.5 h 31.763 c 4.143,0 7.5,-3.358 7.5,-7.5 V 17.5 c 0,-1.378 1.121,-2.5 2.5,-2.5 h 63.525 c 1.379,0 2.5,1.122 2.5,2.5 v 13.366 c 0,4.142 3.357,7.5 7.5,7.5 h 31.763 c 1.379,0 2.5,1.122 2.5,2.5 v 23.345 z" />
    <path
       style="fill:#ffffff;fill-opacity:1"
       id="path6"
       d="m 162.678,267.183 c 14.451,29.981 61.053,40.677 66.111,41.757 1.754,0.556 13.257,4.425 19.954,12.19 1.824,2.115 4.469,3.328 7.257,3.328 2.788,0 5.433,-1.213 7.257,-3.328 6.718,-7.789 18.271,-11.658 19.957,-12.191 0.523,-0.113 1.554,-0.343 3.005,-0.707 6.184,-1.545 18.407,-5.082 30.779,-11.398 16.29,-8.315 27.307,-18.595 32.746,-30.551 6.018,-13.226 5.02,-27.862 -2.962,-43.501 -24.047,-47.111 -8.231,-74.468 -4.816,-79.474 2.755,-4.04 2.025,-9.483 -1.699,-12.662 l -26.865,-22.925 c -2.927,-2.499 -7.04,-3.006 -10.482,-1.288 -24.979,12.476 -37.472,4.436 -40.707,1.674 -3.599,-3.072 -8.824,-3.073 -12.427,0.001 -3.234,2.761 -15.726,10.803 -40.707,-1.675 -3.439,-1.716 -7.552,-1.211 -10.478,1.286 l -26.869,22.928 c -3.724,3.178 -4.453,8.622 -1.698,12.662 1.929,2.827 6.562,10.805 7.934,23.812 1.78,16.872 -2.51,35.599 -12.75,55.662 -8.171,16.007 -9.026,30.946 -2.54,44.4 z m 15.899,-37.582 c 23.92,-46.86 13.361,-77.81 6.406,-90.544 l 20.672,-17.64 c 12.547,5.718 24.235,7.845 34.791,6.318 6.925,-1 12.09,-3.422 15.554,-5.628 3.464,2.206 8.63,4.628 15.554,5.628 10.559,1.524 22.244,-0.601 34.791,-6.318 l 20.672,17.64 c -6.955,12.734 -17.514,43.683 6.406,90.544 5.881,11.522 6.754,21.489 2.668,30.47 -7.657,16.832 -32.662,28.398 -53.511,33.609 -1.721,0.431 -2.73,0.638 -2.732,0.639 -0.198,0.04 -0.395,0.088 -0.589,0.145 -0.608,0.176 -13.276,3.912 -23.259,12.735 -9.981,-8.823 -22.65,-12.56 -23.259,-12.735 -0.194,-0.056 -0.39,-0.104 -0.587,-0.144 -12.256,-2.491 -46.2,-13.392 -55.965,-33.65 -4.402,-9.133 -3.621,-19.296 2.388,-31.069 z" />
    <path
       style="fill:#ffffff;fill-opacity:1"
       id="path8"
       d="m 225.678,217.043 -3.87,22.567 c -0.623,3.626 0.841,7.224 3.817,9.387 2.977,2.164 6.852,2.444 10.109,0.731 L 256,239.073 l 20.266,10.655 c 1.417,0.745 2.95,1.113 4.476,1.113 1.981,-0.001 3.951,-0.622 5.634,-1.844 2.977,-2.163 4.44,-5.76 3.817,-9.387 l -3.87,-22.567 16.396,-15.982 c 2.635,-2.568 3.565,-6.338 2.429,-9.838 -1.137,-3.5 -4.106,-6.003 -7.747,-6.533 -0.001,0 -0.001,0 -0.002,0 l -22.657,-3.292 -10.134,-20.532 c -1.629,-3.3 -4.927,-5.35 -8.606,-5.35 -3.68,0 -6.977,2.05 -8.606,5.35 l -10.134,20.532 -22.659,3.292 c -3.642,0.53 -6.61,3.033 -7.747,6.533 -1.137,3.499 -0.206,7.27 2.429,9.838 z m 17.64,-21.369 c 2.443,-0.355 4.555,-1.889 5.647,-4.103 L 256,177.32 l 7.034,14.252 c 1.093,2.213 3.204,3.748 5.647,4.103 l 15.728,2.286 -11.381,11.094 c -1.768,1.723 -2.574,4.206 -2.156,6.639 l 2.686,15.665 -14.068,-7.396 c -2.186,-1.149 -4.795,-1.149 -6.98,0 l -14.068,7.396 2.686,-15.665 c 0.418,-2.433 -0.389,-4.916 -2.156,-6.639 l -11.381,-11.094 z" />
    <path
       style="fill:#ffffff;fill-opacity:1"
       id="path10"
       d="m 155.486,350.329 c 0,4.142 3.357,7.5 7.5,7.5 h 186.027 c 4.143,0 7.5,-3.358 7.5,-7.5 0,-4.142 -3.357,-7.5 -7.5,-7.5 H 162.986 c -4.142,0 -7.5,3.358 -7.5,7.5 z" />
    <path
       style="fill:#ffffff;fill-opacity:1"
       id="path12"
       d="m 162.986,395.293 h 186.027 c 4.143,0 7.5,-3.358 7.5,-7.5 0,-4.142 -3.357,-7.5 -7.5,-7.5 H 162.986 c -4.143,0 -7.5,3.358 -7.5,7.5 0,4.142 3.358,7.5 7.5,7.5 z" />
    <path
       style="fill:#ffffff;fill-opacity:1"
       id="path14"
       d="m 162.986,432.755 h 186.027 c 4.143,0 7.5,-3.358 7.5,-7.5 0,-4.142 -3.357,-7.5 -7.5,-7.5 H 162.986 c -4.143,0 -7.5,3.358 -7.5,7.5 0,4.142 3.358,7.5 7.5,7.5 z" />
  </g>
</svg>
