<svg width="26" height="18" viewBox="0 0 26 18" fill="none" xmlns="http://www.w3.org/2000/svg">
<path d="M1.8 0H10.8C11.2774 0 11.7352 0.189642 12.0728 0.527208C12.4104 0.864773 12.6 1.32261 12.6 1.8C12.6 2.27739 12.4104 2.73523 12.0728 3.07279C11.7352 3.41036 11.2774 3.6 10.8 3.6H1.8C1.32261 3.6 0.864773 3.41036 0.527208 3.07279C0.189642 2.73523 0 2.27739 0 1.8C0 1.32261 0.189642 0.864773 0.527208 0.527208C0.864773 0.189642 1.32261 0 1.8 0ZM14.4 14.4H23.4C23.8774 14.4 24.3352 14.5896 24.6728 14.9272C25.0104 15.2648 25.2 15.7226 25.2 16.2C25.2 16.6774 25.0104 17.1352 24.6728 17.4728C24.3352 17.8104 23.8774 18 23.4 18H14.4C13.9226 18 13.4648 17.8104 13.1272 17.4728C12.7896 17.1352 12.6 16.6774 12.6 16.2C12.6 15.7226 12.7896 15.2648 13.1272 14.9272C13.4648 14.5896 13.9226 14.4 14.4 14.4ZM1.8 7.2H23.4C23.8774 7.2 24.3352 7.38964 24.6728 7.72721C25.0104 8.06477 25.2 8.52261 25.2 9C25.2 9.47739 25.0104 9.93523 24.6728 10.2728C24.3352 10.6104 23.8774 10.8 23.4 10.8H1.8C1.32261 10.8 0.864773 10.6104 0.527208 10.2728C0.189642 9.93523 0 9.47739 0 9C0 8.52261 0.189642 8.06477 0.527208 7.72721C0.864773 7.38964 1.32261 7.2 1.8 7.2Z" fill="#0AA1DD"/>
</svg>
